<mxfile><diagram name="ページ1" id="XBwVuHDo05YGSn4OJ-u0"><mxGraphModel dx="3289" dy="2344" grid="1" gridSize="10" guides="1" tooltips="1" connect="1" arrows="1" fold="1" page="1" pageScale="1" pageWidth="1169" pageHeight="1654" math="0" shadow="0"><root><mxCell id="0"/><mxCell id="1" parent="0"/><mxCell id="zaHt_wBv9F0KEou9O8MJ-60" style="rounded=0;orthogonalLoop=1;jettySize=auto;html=1;" parent="1" source="zaHt_wBv9F0KEou9O8MJ-49" target="zaHt_wBv9F0KEou9O8MJ-59" edge="1"><mxGeometry relative="1" as="geometry"/></mxCell><mxCell id="zaHt_wBv9F0KEou9O8MJ-49" value="システム　　　　" style="ellipse;whiteSpace=wrap;html=1;" parent="1" vertex="1"><mxGeometry x="-80" y="-650" width="180" height="80" as="geometry"/></mxCell><mxCell id="zaHt_wBv9F0KEou9O8MJ-50" value="システム開発者" style="ellipse;whiteSpace=wrap;html=1;" parent="1" vertex="1"><mxGeometry x="-45" y="-710" width="120" height="80" as="geometry"/></mxCell><mxCell id="zaHt_wBv9F0KEou9O8MJ-52" style="edgeStyle=orthogonalEdgeStyle;rounded=0;orthogonalLoop=1;jettySize=auto;html=1;" parent="1" source="zaHt_wBv9F0KEou9O8MJ-51" target="zaHt_wBv9F0KEou9O8MJ-53" edge="1"><mxGeometry relative="1" as="geometry"><mxPoint x="45" y="-490" as="targetPoint"/></mxGeometry></mxCell><mxCell id="zaHt_wBv9F0KEou9O8MJ-81" style="rounded=0;orthogonalLoop=1;jettySize=auto;html=1;" parent="1" source="zaHt_wBv9F0KEou9O8MJ-51" target="zaHt_wBv9F0KEou9O8MJ-71" edge="1"><mxGeometry relative="1" as="geometry"/></mxCell><mxCell id="zaHt_wBv9F0KEou9O8MJ-84" style="rounded=0;orthogonalLoop=1;jettySize=auto;html=1;" parent="1" source="zaHt_wBv9F0KEou9O8MJ-51" target="zaHt_wBv9F0KEou9O8MJ-83" edge="1"><mxGeometry relative="1" as="geometry"/></mxCell><mxCell id="zaHt_wBv9F0KEou9O8MJ-85" style="rounded=0;orthogonalLoop=1;jettySize=auto;html=1;" parent="1" source="zaHt_wBv9F0KEou9O8MJ-51" target="zaHt_wBv9F0KEou9O8MJ-82" edge="1"><mxGeometry relative="1" as="geometry"/></mxCell><mxCell id="zaHt_wBv9F0KEou9O8MJ-51" value="" style="ellipse;whiteSpace=wrap;html=1;" parent="1" vertex="1"><mxGeometry x="15" y="-630" width="60" height="50" as="geometry"/></mxCell><mxCell id="zaHt_wBv9F0KEou9O8MJ-53" value="ツアー会社" style="rounded=1;whiteSpace=wrap;html=1;" parent="1" vertex="1"><mxGeometry x="-15" y="-430" width="120" height="60" as="geometry"/></mxCell><mxCell id="zaHt_wBv9F0KEou9O8MJ-54" value="３" style="rounded=1;whiteSpace=wrap;html=1;" parent="1" vertex="1"><mxGeometry x="105.5" y="-370" width="120" height="60" as="geometry"/></mxCell><mxCell id="zaHt_wBv9F0KEou9O8MJ-55" value="２" style="rounded=1;whiteSpace=wrap;html=1;" parent="1" vertex="1"><mxGeometry x="-14.5" y="-370" width="120" height="60" as="geometry"/></mxCell><mxCell id="zaHt_wBv9F0KEou9O8MJ-56" value="イベント１" style="rounded=1;whiteSpace=wrap;html=1;" parent="1" vertex="1"><mxGeometry x="-135.5" y="-370" width="120" height="60" as="geometry"/></mxCell><mxCell id="zaHt_wBv9F0KEou9O8MJ-57" value="権限を一部売る" style="text;html=1;align=center;verticalAlign=middle;resizable=0;points=[];autosize=1;strokeColor=none;fillColor=none;" parent="1" vertex="1"><mxGeometry x="35" y="-542" width="110" height="30" as="geometry"/></mxCell><mxCell id="zaHt_wBv9F0KEou9O8MJ-58" value="ユーザー" style="ellipse;whiteSpace=wrap;html=1;" parent="1" vertex="1"><mxGeometry x="-14.5" y="-270" width="120" height="80" as="geometry"/></mxCell><mxCell id="zaHt_wBv9F0KEou9O8MJ-59" value="ユーザー" style="ellipse;whiteSpace=wrap;html=1;" parent="1" vertex="1"><mxGeometry x="-280" y="-550" width="120" height="80" as="geometry"/></mxCell><mxCell id="zaHt_wBv9F0KEou9O8MJ-61" value="ウェブに公開" style="text;html=1;align=center;verticalAlign=middle;resizable=0;points=[];autosize=1;strokeColor=none;fillColor=none;" parent="1" vertex="1"><mxGeometry x="-195" y="-592" width="100" height="30" as="geometry"/></mxCell><mxCell id="zaHt_wBv9F0KEou9O8MJ-62" value="ユーザー" style="ellipse;whiteSpace=wrap;html=1;" parent="1" vertex="1"><mxGeometry x="105.5" y="-270" width="120" height="80" as="geometry"/></mxCell><mxCell id="zaHt_wBv9F0KEou9O8MJ-63" value="ユーザー" style="ellipse;whiteSpace=wrap;html=1;" parent="1" vertex="1"><mxGeometry x="-135.5" y="-270" width="120" height="80" as="geometry"/></mxCell><mxCell id="zaHt_wBv9F0KEou9O8MJ-64" value="個人のユーザーの異常検知&lt;br&gt;登録ユーザー・企業の管理" style="rounded=0;whiteSpace=wrap;html=1;" parent="1" vertex="1"><mxGeometry x="-255" y="-710" width="206" height="60" as="geometry"/></mxCell><mxCell id="zaHt_wBv9F0KEou9O8MJ-65" value="イベント作成&lt;br&gt;イベント参加ユーザーの管理" style="rounded=0;whiteSpace=wrap;html=1;" parent="1" vertex="1"><mxGeometry x="55" y="-500" width="184.45" height="60" as="geometry"/></mxCell><mxCell id="zaHt_wBv9F0KEou9O8MJ-66" value="イベント管理者" style="rounded=1;whiteSpace=wrap;html=1;" parent="1" vertex="1"><mxGeometry x="-135.5" y="-310" width="120" height="40" as="geometry"/></mxCell><mxCell id="zaHt_wBv9F0KEou9O8MJ-69" value="イベント管理者" style="rounded=1;whiteSpace=wrap;html=1;" parent="1" vertex="1"><mxGeometry x="-14.5" y="-310" width="120" height="40" as="geometry"/></mxCell><mxCell id="zaHt_wBv9F0KEou9O8MJ-70" value="イベント管理者" style="rounded=1;whiteSpace=wrap;html=1;" parent="1" vertex="1"><mxGeometry x="105.5" y="-310" width="120" height="40" as="geometry"/></mxCell><mxCell id="zaHt_wBv9F0KEou9O8MJ-71" value="ツアー会社" style="rounded=1;whiteSpace=wrap;html=1;" parent="1" vertex="1"><mxGeometry x="325.5" y="-480" width="120" height="60" as="geometry"/></mxCell><mxCell id="zaHt_wBv9F0KEou9O8MJ-73" value="２" style="rounded=1;whiteSpace=wrap;html=1;" parent="1" vertex="1"><mxGeometry x="396" y="-420" width="120" height="60" as="geometry"/></mxCell><mxCell id="zaHt_wBv9F0KEou9O8MJ-74" value="イベント１" style="rounded=1;whiteSpace=wrap;html=1;" parent="1" vertex="1"><mxGeometry x="275" y="-420" width="120" height="60" as="geometry"/></mxCell><mxCell id="zaHt_wBv9F0KEou9O8MJ-75" value="ユーザー" style="ellipse;whiteSpace=wrap;html=1;" parent="1" vertex="1"><mxGeometry x="396" y="-320" width="120" height="80" as="geometry"/></mxCell><mxCell id="zaHt_wBv9F0KEou9O8MJ-77" value="ユーザー" style="ellipse;whiteSpace=wrap;html=1;" parent="1" vertex="1"><mxGeometry x="276" y="-320" width="120" height="80" as="geometry"/></mxCell><mxCell id="zaHt_wBv9F0KEou9O8MJ-82" value="スキー" style="rounded=1;whiteSpace=wrap;html=1;" parent="1" vertex="1"><mxGeometry x="411" y="-730" width="120" height="60" as="geometry"/></mxCell><mxCell id="zaHt_wBv9F0KEou9O8MJ-83" value="ツアー会社" style="rounded=1;whiteSpace=wrap;html=1;" parent="1" vertex="1"><mxGeometry x="120" y="-810" width="120" height="60" as="geometry"/></mxCell><mxCell id="zaHt_wBv9F0KEou9O8MJ-86" value="イベント管理者" style="rounded=1;whiteSpace=wrap;html=1;" parent="1" vertex="1"><mxGeometry x="276" y="-360" width="120" height="40" as="geometry"/></mxCell><mxCell id="zaHt_wBv9F0KEou9O8MJ-87" value="イベント管理者" style="rounded=1;whiteSpace=wrap;html=1;" parent="1" vertex="1"><mxGeometry x="396" y="-360" width="120" height="40" as="geometry"/></mxCell><mxCell id="zaHt_wBv9F0KEou9O8MJ-88" value="イベント１" style="rounded=1;whiteSpace=wrap;html=1;" parent="1" vertex="1"><mxGeometry x="410" y="-670" width="120" height="60" as="geometry"/></mxCell><mxCell id="zaHt_wBv9F0KEou9O8MJ-89" value="ユーザー" style="ellipse;whiteSpace=wrap;html=1;" parent="1" vertex="1"><mxGeometry x="411.1099999999997" y="-610" width="120" height="80" as="geometry"/></mxCell><mxCell id="zaHt_wBv9F0KEou9O8MJ-94" value="イベント管理者はあってもなくてもいい" style="text;html=1;align=center;verticalAlign=middle;resizable=0;points=[];autosize=1;strokeColor=none;fillColor=none;" parent="1" vertex="1"><mxGeometry x="435" y="-512" width="240" height="30" as="geometry"/></mxCell><mxCell id="zaHt_wBv9F0KEou9O8MJ-161" value="" style="group" parent="1" vertex="1" connectable="0"><mxGeometry x="-939.9999999999998" y="-380" width="489.9999999999998" height="330" as="geometry"/></mxCell><mxCell id="939VMe6MDlw07Kl8Ivs7-76" value="GPSのプライバシーは&lt;br&gt;最初に規約に同意してもらう" style="text;html=1;align=center;verticalAlign=middle;resizable=0;points=[];autosize=1;strokeColor=none;fillColor=none;container=0;" parent="zaHt_wBv9F0KEou9O8MJ-161" vertex="1"><mxGeometry x="189.99999999999977" width="180" height="40" as="geometry"/></mxCell><mxCell id="939VMe6MDlw07Kl8Ivs7-61" value="ユーザー" style="shape=umlActor;verticalLabelPosition=bottom;verticalAlign=top;html=1;outlineConnect=0;container=0;" parent="zaHt_wBv9F0KEou9O8MJ-161" vertex="1"><mxGeometry y="250" width="30" height="60" as="geometry"/></mxCell><mxCell id="939VMe6MDlw07Kl8Ivs7-72" value="新規登録・ログイン・ログアウト&lt;br&gt;アカウントの確認・変更・削除、状況変更&lt;br&gt;グループの作成・変更・削除&lt;br&gt;合流ルートの作成&lt;br&gt;管理者に連絡" style="whiteSpace=wrap;html=1;container=0;" parent="zaHt_wBv9F0KEou9O8MJ-161" vertex="1"><mxGeometry x="70" y="250" width="420" height="80" as="geometry"/></mxCell><mxCell id="939VMe6MDlw07Kl8Ivs7-63" value="管理者" style="shape=umlActor;verticalLabelPosition=bottom;verticalAlign=top;html=1;outlineConnect=0;container=0;" parent="zaHt_wBv9F0KEou9O8MJ-161" vertex="1"><mxGeometry y="140" width="30" height="60" as="geometry"/></mxCell><mxCell id="939VMe6MDlw07Kl8Ivs7-71" value="位置情報の取得、間隔の設定&lt;br&gt;ユーザーの異常確認" style="whiteSpace=wrap;html=1;container=0;" parent="zaHt_wBv9F0KEou9O8MJ-161" vertex="1"><mxGeometry x="70" y="150" width="420" height="60" as="geometry"/></mxCell><mxCell id="939VMe6MDlw07Kl8Ivs7-62" value="提案先" style="shape=umlActor;verticalLabelPosition=bottom;verticalAlign=top;html=1;outlineConnect=0;container=0;" parent="zaHt_wBv9F0KEou9O8MJ-161" vertex="1"><mxGeometry y="40" width="30" height="60" as="geometry"/></mxCell><mxCell id="939VMe6MDlw07Kl8Ivs7-70" value="ツアーの作成・変更・削除&lt;br&gt;イベントグループの作成・削除&lt;br&gt;ユーザーの管理" style="whiteSpace=wrap;html=1;container=0;" parent="zaHt_wBv9F0KEou9O8MJ-161" vertex="1"><mxGeometry x="70" y="51" width="420" height="60" as="geometry"/></mxCell><mxCell id="zaHt_wBv9F0KEou9O8MJ-162" value="" style="group" parent="1" vertex="1" connectable="0"><mxGeometry x="-989.9999999999998" y="-1080" width="557.2300000000002" height="660" as="geometry"/></mxCell><mxCell id="DY4rHuwdRVttyrDEikKL-43" value="" style="rounded=0;whiteSpace=wrap;html=1;" parent="zaHt_wBv9F0KEou9O8MJ-162" vertex="1"><mxGeometry x="47.23000000000002" y="30" width="510" height="352.5" as="geometry"/></mxCell><mxCell id="DY4rHuwdRVttyrDEikKL-44" value="ツアー旅行&lt;br&gt;スキー" style="ellipse;whiteSpace=wrap;html=1;" parent="zaHt_wBv9F0KEou9O8MJ-162" vertex="1"><mxGeometry width="120" height="80" as="geometry"/></mxCell><mxCell id="DY4rHuwdRVttyrDEikKL-46" value="イベント" style="rounded=1;whiteSpace=wrap;html=1;verticalAlign=top;" parent="zaHt_wBv9F0KEou9O8MJ-162" vertex="1"><mxGeometry x="100" y="145" width="410" height="225" as="geometry"/></mxCell><mxCell id="DY4rHuwdRVttyrDEikKL-47" value="グループ" style="rounded=1;whiteSpace=wrap;html=1;" parent="zaHt_wBv9F0KEou9O8MJ-162" vertex="1"><mxGeometry x="310" y="270" width="160" height="80" as="geometry"/></mxCell><mxCell id="DY4rHuwdRVttyrDEikKL-48" value="グループ" style="rounded=1;whiteSpace=wrap;html=1;" parent="zaHt_wBv9F0KEou9O8MJ-162" vertex="1"><mxGeometry x="130" y="167.5" width="100" height="72.5" as="geometry"/></mxCell><mxCell id="DY4rHuwdRVttyrDEikKL-49" value="グループ" style="rounded=1;whiteSpace=wrap;html=1;" parent="zaHt_wBv9F0KEou9O8MJ-162" vertex="1"><mxGeometry x="400" y="187.5" width="80" height="60" as="geometry"/></mxCell><mxCell id="DY4rHuwdRVttyrDEikKL-50" value="グループ" style="rounded=1;whiteSpace=wrap;html=1;" parent="zaHt_wBv9F0KEou9O8MJ-162" vertex="1"><mxGeometry x="220" y="247.5" width="60" height="52.5" as="geometry"/></mxCell><mxCell id="DY4rHuwdRVttyrDEikKL-45" value="グループ" style="rounded=1;whiteSpace=wrap;html=1;" parent="zaHt_wBv9F0KEou9O8MJ-162" vertex="1"><mxGeometry x="130" y="290" width="80" height="60" as="geometry"/></mxCell><mxCell id="DY4rHuwdRVttyrDEikKL-51" value="グループ" style="rounded=1;whiteSpace=wrap;html=1;" parent="zaHt_wBv9F0KEou9O8MJ-162" vertex="1"><mxGeometry x="250" y="180" width="130" height="60" as="geometry"/></mxCell><mxCell id="DY4rHuwdRVttyrDEikKL-52" value="" style="rounded=0;whiteSpace=wrap;html=1;" parent="zaHt_wBv9F0KEou9O8MJ-162" vertex="1"><mxGeometry x="95" y="463" width="420" height="197" as="geometry"/></mxCell><mxCell id="DY4rHuwdRVttyrDEikKL-53" value="旅行" style="ellipse;whiteSpace=wrap;html=1;" parent="zaHt_wBv9F0KEou9O8MJ-162" vertex="1"><mxGeometry x="65" y="420" width="120" height="80" as="geometry"/></mxCell><mxCell id="DY4rHuwdRVttyrDEikKL-55" value="グループ" style="rounded=1;whiteSpace=wrap;html=1;verticalAlign=top;" parent="zaHt_wBv9F0KEou9O8MJ-162" vertex="1"><mxGeometry x="150" y="543" width="315" height="100" as="geometry"/></mxCell><mxCell id="DY4rHuwdRVttyrDEikKL-61" value="会社" style="rounded=0;whiteSpace=wrap;html=1;" parent="zaHt_wBv9F0KEou9O8MJ-162" vertex="1"><mxGeometry x="255" y="110" width="100" height="40" as="geometry"/></mxCell><mxCell id="zaHt_wBv9F0KEou9O8MJ-106" style="edgeStyle=orthogonalEdgeStyle;rounded=0;orthogonalLoop=1;jettySize=auto;html=1;dashed=1;endArrow=none;endFill=0;" parent="zaHt_wBv9F0KEou9O8MJ-162" source="DY4rHuwdRVttyrDEikKL-62" target="DY4rHuwdRVttyrDEikKL-55" edge="1"><mxGeometry relative="1" as="geometry"/></mxCell><mxCell id="DY4rHuwdRVttyrDEikKL-62" value="管理者" style="rounded=0;whiteSpace=wrap;html=1;" parent="zaHt_wBv9F0KEou9O8MJ-162" vertex="1"><mxGeometry x="257.5" y="477" width="100" height="40" as="geometry"/></mxCell><mxCell id="DY4rHuwdRVttyrDEikKL-81" value="" style="group" parent="zaHt_wBv9F0KEou9O8MJ-162" vertex="1" connectable="0"><mxGeometry x="229" y="573" width="170" height="40" as="geometry"/></mxCell><mxCell id="DY4rHuwdRVttyrDEikKL-75" value="" style="shape=umlActor;verticalLabelPosition=bottom;verticalAlign=top;html=1;outlineConnect=0;" parent="DY4rHuwdRVttyrDEikKL-81" vertex="1"><mxGeometry width="18.88888888888889" height="40" as="geometry"/></mxCell><mxCell id="DY4rHuwdRVttyrDEikKL-76" value="" style="shape=umlActor;verticalLabelPosition=bottom;verticalAlign=top;html=1;outlineConnect=0;" parent="DY4rHuwdRVttyrDEikKL-81" vertex="1"><mxGeometry x="37.77777777777778" width="18.88888888888889" height="40" as="geometry"/></mxCell><mxCell id="DY4rHuwdRVttyrDEikKL-77" value="" style="shape=umlActor;verticalLabelPosition=bottom;verticalAlign=top;html=1;outlineConnect=0;" parent="DY4rHuwdRVttyrDEikKL-81" vertex="1"><mxGeometry x="75.55555555555556" width="18.88888888888889" height="40" as="geometry"/></mxCell><mxCell id="DY4rHuwdRVttyrDEikKL-78" value="" style="shape=umlActor;verticalLabelPosition=bottom;verticalAlign=top;html=1;outlineConnect=0;" parent="DY4rHuwdRVttyrDEikKL-81" vertex="1"><mxGeometry x="113.33333333333333" width="18.88888888888889" height="40" as="geometry"/></mxCell><mxCell id="DY4rHuwdRVttyrDEikKL-79" value="" style="shape=umlActor;verticalLabelPosition=bottom;verticalAlign=top;html=1;outlineConnect=0;" parent="DY4rHuwdRVttyrDEikKL-81" vertex="1"><mxGeometry x="151.11111111111111" width="18.88888888888889" height="40" as="geometry"/></mxCell><mxCell id="DY4rHuwdRVttyrDEikKL-89" value="" style="group" parent="zaHt_wBv9F0KEou9O8MJ-162" vertex="1" connectable="0"><mxGeometry x="355" y="330" width="90" height="20" as="geometry"/></mxCell><mxCell id="DY4rHuwdRVttyrDEikKL-90" value="" style="shape=umlActor;verticalLabelPosition=bottom;verticalAlign=top;html=1;outlineConnect=0;" parent="DY4rHuwdRVttyrDEikKL-89" vertex="1"><mxGeometry width="10" height="20" as="geometry"/></mxCell><mxCell id="DY4rHuwdRVttyrDEikKL-91" value="" style="shape=umlActor;verticalLabelPosition=bottom;verticalAlign=top;html=1;outlineConnect=0;" parent="DY4rHuwdRVttyrDEikKL-89" vertex="1"><mxGeometry x="20" width="10" height="20" as="geometry"/></mxCell><mxCell id="DY4rHuwdRVttyrDEikKL-92" value="" style="shape=umlActor;verticalLabelPosition=bottom;verticalAlign=top;html=1;outlineConnect=0;" parent="DY4rHuwdRVttyrDEikKL-89" vertex="1"><mxGeometry x="40" width="10" height="20" as="geometry"/></mxCell><mxCell id="DY4rHuwdRVttyrDEikKL-93" value="" style="shape=umlActor;verticalLabelPosition=bottom;verticalAlign=top;html=1;outlineConnect=0;" parent="DY4rHuwdRVttyrDEikKL-89" vertex="1"><mxGeometry x="60" width="10" height="20" as="geometry"/></mxCell><mxCell id="DY4rHuwdRVttyrDEikKL-94" value="" style="shape=umlActor;verticalLabelPosition=bottom;verticalAlign=top;html=1;outlineConnect=0;" parent="DY4rHuwdRVttyrDEikKL-89" vertex="1"><mxGeometry x="80" width="10" height="20" as="geometry"/></mxCell><mxCell id="DY4rHuwdRVttyrDEikKL-101" value="" style="group" parent="zaHt_wBv9F0KEou9O8MJ-162" vertex="1" connectable="0"><mxGeometry x="150" y="220" width="80" height="20" as="geometry"/></mxCell><mxCell id="DY4rHuwdRVttyrDEikKL-102" value="" style="shape=umlActor;verticalLabelPosition=bottom;verticalAlign=top;html=1;outlineConnect=0;" parent="DY4rHuwdRVttyrDEikKL-101" vertex="1"><mxGeometry width="8.88888888888889" height="20" as="geometry"/></mxCell><mxCell id="DY4rHuwdRVttyrDEikKL-103" value="" style="shape=umlActor;verticalLabelPosition=bottom;verticalAlign=top;html=1;outlineConnect=0;" parent="DY4rHuwdRVttyrDEikKL-101" vertex="1"><mxGeometry x="17.77777777777778" width="8.88888888888889" height="20" as="geometry"/></mxCell><mxCell id="DY4rHuwdRVttyrDEikKL-104" value="" style="shape=umlActor;verticalLabelPosition=bottom;verticalAlign=top;html=1;outlineConnect=0;" parent="DY4rHuwdRVttyrDEikKL-101" vertex="1"><mxGeometry x="35.55555555555556" width="8.88888888888889" height="20" as="geometry"/></mxCell><mxCell id="DY4rHuwdRVttyrDEikKL-105" value="" style="shape=umlActor;verticalLabelPosition=bottom;verticalAlign=top;html=1;outlineConnect=0;" parent="DY4rHuwdRVttyrDEikKL-101" vertex="1"><mxGeometry x="53.33333333333333" width="8.88888888888889" height="20" as="geometry"/></mxCell><mxCell id="DY4rHuwdRVttyrDEikKL-108" value="" style="group" parent="zaHt_wBv9F0KEou9O8MJ-162" vertex="1" connectable="0"><mxGeometry x="230" y="280" width="80" height="20" as="geometry"/></mxCell><mxCell id="DY4rHuwdRVttyrDEikKL-109" value="" style="shape=umlActor;verticalLabelPosition=bottom;verticalAlign=top;html=1;outlineConnect=0;" parent="DY4rHuwdRVttyrDEikKL-108" vertex="1"><mxGeometry width="8.88888888888889" height="20" as="geometry"/></mxCell><mxCell id="DY4rHuwdRVttyrDEikKL-110" value="" style="shape=umlActor;verticalLabelPosition=bottom;verticalAlign=top;html=1;outlineConnect=0;" parent="DY4rHuwdRVttyrDEikKL-108" vertex="1"><mxGeometry x="17.77777777777778" width="8.88888888888889" height="20" as="geometry"/></mxCell><mxCell id="DY4rHuwdRVttyrDEikKL-113" value="" style="group" parent="zaHt_wBv9F0KEou9O8MJ-162" vertex="1" connectable="0"><mxGeometry x="290" y="220" width="80" height="20" as="geometry"/></mxCell><mxCell id="DY4rHuwdRVttyrDEikKL-114" value="" style="shape=umlActor;verticalLabelPosition=bottom;verticalAlign=top;html=1;outlineConnect=0;" parent="DY4rHuwdRVttyrDEikKL-113" vertex="1"><mxGeometry width="8.88888888888889" height="20" as="geometry"/></mxCell><mxCell id="DY4rHuwdRVttyrDEikKL-115" value="" style="shape=umlActor;verticalLabelPosition=bottom;verticalAlign=top;html=1;outlineConnect=0;" parent="DY4rHuwdRVttyrDEikKL-113" vertex="1"><mxGeometry x="17.77777777777778" width="8.88888888888889" height="20" as="geometry"/></mxCell><mxCell id="DY4rHuwdRVttyrDEikKL-116" value="" style="shape=umlActor;verticalLabelPosition=bottom;verticalAlign=top;html=1;outlineConnect=0;" parent="DY4rHuwdRVttyrDEikKL-113" vertex="1"><mxGeometry x="35.55555555555556" width="8.88888888888889" height="20" as="geometry"/></mxCell><mxCell id="DY4rHuwdRVttyrDEikKL-117" value="" style="shape=umlActor;verticalLabelPosition=bottom;verticalAlign=top;html=1;outlineConnect=0;" parent="DY4rHuwdRVttyrDEikKL-113" vertex="1"><mxGeometry x="53.33333333333333" width="8.88888888888889" height="20" as="geometry"/></mxCell><mxCell id="DY4rHuwdRVttyrDEikKL-118" value="" style="group" parent="zaHt_wBv9F0KEou9O8MJ-162" vertex="1" connectable="0"><mxGeometry x="409.9999999999998" y="227.5" width="80" height="20" as="geometry"/></mxCell><mxCell id="DY4rHuwdRVttyrDEikKL-119" value="" style="shape=umlActor;verticalLabelPosition=bottom;verticalAlign=top;html=1;outlineConnect=0;" parent="DY4rHuwdRVttyrDEikKL-118" vertex="1"><mxGeometry width="8.88888888888889" height="20" as="geometry"/></mxCell><mxCell id="DY4rHuwdRVttyrDEikKL-120" value="" style="shape=umlActor;verticalLabelPosition=bottom;verticalAlign=top;html=1;outlineConnect=0;" parent="DY4rHuwdRVttyrDEikKL-118" vertex="1"><mxGeometry x="17.77777777777778" width="8.88888888888889" height="20" as="geometry"/></mxCell><mxCell id="DY4rHuwdRVttyrDEikKL-121" value="" style="shape=umlActor;verticalLabelPosition=bottom;verticalAlign=top;html=1;outlineConnect=0;" parent="DY4rHuwdRVttyrDEikKL-118" vertex="1"><mxGeometry x="35.55555555555556" width="8.88888888888889" height="20" as="geometry"/></mxCell><mxCell id="DY4rHuwdRVttyrDEikKL-123" value="" style="group" parent="zaHt_wBv9F0KEou9O8MJ-162" vertex="1" connectable="0"><mxGeometry x="140" y="330" width="80" height="20" as="geometry"/></mxCell><mxCell id="DY4rHuwdRVttyrDEikKL-124" value="" style="shape=umlActor;verticalLabelPosition=bottom;verticalAlign=top;html=1;outlineConnect=0;" parent="DY4rHuwdRVttyrDEikKL-123" vertex="1"><mxGeometry width="8.88888888888889" height="20" as="geometry"/></mxCell><mxCell id="DY4rHuwdRVttyrDEikKL-125" value="" style="shape=umlActor;verticalLabelPosition=bottom;verticalAlign=top;html=1;outlineConnect=0;" parent="DY4rHuwdRVttyrDEikKL-123" vertex="1"><mxGeometry x="17.77777777777778" width="8.88888888888889" height="20" as="geometry"/></mxCell><mxCell id="DY4rHuwdRVttyrDEikKL-126" value="" style="shape=umlActor;verticalLabelPosition=bottom;verticalAlign=top;html=1;outlineConnect=0;" parent="DY4rHuwdRVttyrDEikKL-123" vertex="1"><mxGeometry x="35.55555555555556" width="8.88888888888889" height="20" as="geometry"/></mxCell><mxCell id="DY4rHuwdRVttyrDEikKL-133" value="" style="shape=umlActor;verticalLabelPosition=bottom;verticalAlign=top;html=1;outlineConnect=0;" parent="zaHt_wBv9F0KEou9O8MJ-162" vertex="1"><mxGeometry x="265.5577777777778" y="330" width="8.88888888888889" height="20" as="geometry"/></mxCell><mxCell id="DY4rHuwdRVttyrDEikKL-134" value="" style="shape=umlActor;verticalLabelPosition=bottom;verticalAlign=top;html=1;outlineConnect=0;" parent="zaHt_wBv9F0KEou9O8MJ-162" vertex="1"><mxGeometry x="139.99777777777786" y="260" width="8.88888888888889" height="20" as="geometry"/></mxCell><mxCell id="DY4rHuwdRVttyrDEikKL-135" value="" style="shape=umlActor;verticalLabelPosition=bottom;verticalAlign=top;html=1;outlineConnect=0;" parent="zaHt_wBv9F0KEou9O8MJ-162" vertex="1"><mxGeometry x="229.99777777777786" y="310" width="8.88888888888889" height="20" as="geometry"/></mxCell><mxCell id="DY4rHuwdRVttyrDEikKL-136" value="" style="shape=umlActor;verticalLabelPosition=bottom;verticalAlign=top;html=1;outlineConnect=0;" parent="zaHt_wBv9F0KEou9O8MJ-162" vertex="1"><mxGeometry x="465.107777777778" y="160" width="8.88888888888889" height="20" as="geometry"/></mxCell><mxCell id="DY4rHuwdRVttyrDEikKL-137" value="" style="shape=umlActor;verticalLabelPosition=bottom;verticalAlign=top;html=1;outlineConnect=0;" parent="zaHt_wBv9F0KEou9O8MJ-162" vertex="1"><mxGeometry x="391.10777777777776" y="160" width="8.88888888888889" height="20" as="geometry"/></mxCell><mxCell id="DY4rHuwdRVttyrDEikKL-138" value="" style="shape=umlActor;verticalLabelPosition=bottom;verticalAlign=top;html=1;outlineConnect=0;" parent="zaHt_wBv9F0KEou9O8MJ-162" vertex="1"><mxGeometry x="489.99777777777786" y="290" width="8.88888888888889" height="20" as="geometry"/></mxCell><mxCell id="DY4rHuwdRVttyrDEikKL-139" value="イベントの大きなくくりの中に&lt;br&gt;さらにそれぞれでグループがある" style="text;html=1;align=center;verticalAlign=middle;resizable=0;points=[];autosize=1;strokeColor=none;fillColor=none;" parent="zaHt_wBv9F0KEou9O8MJ-162" vertex="1"><mxGeometry x="339.9999999999998" y="390" width="200" height="40" as="geometry"/></mxCell><mxCell id="zaHt_wBv9F0KEou9O8MJ-1" value="個人" style="text;html=1;align=center;verticalAlign=middle;resizable=0;points=[];autosize=1;strokeColor=none;fillColor=none;" parent="zaHt_wBv9F0KEou9O8MJ-162" vertex="1"><mxGeometry x="180" y="433" width="50" height="30" as="geometry"/></mxCell><mxCell id="zaHt_wBv9F0KEou9O8MJ-105" style="edgeStyle=orthogonalEdgeStyle;rounded=0;orthogonalLoop=1;jettySize=auto;html=1;dashed=1;endArrow=none;endFill=0;" parent="zaHt_wBv9F0KEou9O8MJ-162" source="zaHt_wBv9F0KEou9O8MJ-104" target="DY4rHuwdRVttyrDEikKL-61" edge="1"><mxGeometry relative="1" as="geometry"/></mxCell><mxCell id="zaHt_wBv9F0KEou9O8MJ-104" value="管理者" style="rounded=0;whiteSpace=wrap;html=1;" parent="zaHt_wBv9F0KEou9O8MJ-162" vertex="1"><mxGeometry x="255" y="45" width="100" height="40" as="geometry"/></mxCell><mxCell id="zaHt_wBv9F0KEou9O8MJ-93" value="" style="group" parent="1" vertex="1" connectable="0"><mxGeometry x="510" y="-120" width="270" height="85" as="geometry"/></mxCell><mxCell id="CKtyOYaQWajw3hzrJsdJ-13" value="No. |　 名前　 | 年齢 | 通知 | 状況 | 不動 |　残時間" style="rounded=0;whiteSpace=wrap;html=1;" parent="zaHt_wBv9F0KEou9O8MJ-93" vertex="1"><mxGeometry width="270" height="25" as="geometry"/></mxCell><mxCell id="CKtyOYaQWajw3hzrJsdJ-14" value="１　&amp;nbsp; &amp;nbsp;OO　O&amp;nbsp; &amp;nbsp; &amp;nbsp;28　　O　　 / 　　/　　　5:32&lt;br&gt;２　&amp;nbsp; OO　OO&amp;nbsp; &amp;nbsp;32&amp;nbsp; &amp;nbsp; &amp;nbsp;　/&amp;nbsp; &amp;nbsp; &amp;nbsp; &amp;nbsp; &amp;nbsp;O&amp;nbsp; &amp;nbsp; &amp;nbsp; /&amp;nbsp; &amp;nbsp; &amp;nbsp; &amp;nbsp; &amp;nbsp; &amp;nbsp;7:54" style="rounded=0;whiteSpace=wrap;html=1;align=left;verticalAlign=top;" parent="zaHt_wBv9F0KEou9O8MJ-93" vertex="1"><mxGeometry y="25" width="270" height="60" as="geometry"/></mxCell><mxCell id="zaHt_wBv9F0KEou9O8MJ-163" value="&lt;span style=&quot;font-size: 33px;&quot;&gt;システム&lt;br&gt;管理者&lt;/span&gt;" style="shape=hexagon;perimeter=hexagonPerimeter2;whiteSpace=wrap;html=1;fixedSize=1;container=0;" parent="1" vertex="1"><mxGeometry x="1080" y="30" width="190" height="112.5" as="geometry"/></mxCell><mxCell id="DY4rHuwdRVttyrDEikKL-1" value="ホームページ" style="rounded=0;whiteSpace=wrap;html=1;align=left;verticalAlign=top;container=0;" parent="1" vertex="1"><mxGeometry x="-1270" y="312.5" width="180" height="140" as="geometry"/></mxCell><mxCell id="DY4rHuwdRVttyrDEikKL-2" value="三　新規登録&lt;br&gt;　　 ログイン&amp;nbsp;" style="rounded=1;whiteSpace=wrap;html=1;container=0;" parent="1" vertex="1"><mxGeometry x="-1110" y="312.5" width="90" height="50" as="geometry"/></mxCell><mxCell id="DY4rHuwdRVttyrDEikKL-3" value="イベント参加" style="ellipse;whiteSpace=wrap;html=1;container=0;" parent="1" vertex="1"><mxGeometry x="-1235" y="392.5" width="110" height="50" as="geometry"/></mxCell><mxCell id="DY4rHuwdRVttyrDEikKL-5" value="ログイン&lt;br&gt;&lt;br&gt;&lt;br&gt;&lt;br&gt;&lt;br&gt;&lt;br&gt;&lt;br&gt;新規登録はこちら" style="rounded=0;whiteSpace=wrap;html=1;align=left;container=0;verticalAlign=top;" parent="1" vertex="1"><mxGeometry x="-1193" y="511.75" width="189.5" height="122.5" as="geometry"/></mxCell><mxCell id="DY4rHuwdRVttyrDEikKL-4" style="rounded=0;orthogonalLoop=1;jettySize=auto;html=1;exitX=1;exitY=1;exitDx=0;exitDy=0;" parent="1" source="DY4rHuwdRVttyrDEikKL-3" edge="1"><mxGeometry relative="1" as="geometry"><mxPoint x="-1140" y="510" as="targetPoint"/></mxGeometry></mxCell><mxCell id="DY4rHuwdRVttyrDEikKL-8" style="rounded=0;orthogonalLoop=1;jettySize=auto;html=1;entryX=0.457;entryY=0.987;entryDx=0;entryDy=0;entryPerimeter=0;" parent="1" source="DY4rHuwdRVttyrDEikKL-5" edge="1"><mxGeometry relative="1" as="geometry"><mxPoint x="-1211.74" y="450.67999999999984" as="targetPoint"/><Array as="points"><mxPoint x="-1212" y="518"/></Array></mxGeometry></mxCell><mxCell id="DY4rHuwdRVttyrDEikKL-9" value="新規登録" style="rounded=0;whiteSpace=wrap;html=1;align=left;container=0;verticalAlign=top;" parent="1" vertex="1"><mxGeometry x="-934.5" y="487.5" width="210.5" height="172.5" as="geometry"/></mxCell><mxCell id="zaHt_wBv9F0KEou9O8MJ-95" style="edgeStyle=orthogonalEdgeStyle;rounded=0;orthogonalLoop=1;jettySize=auto;html=1;" parent="1" source="DY4rHuwdRVttyrDEikKL-2" target="DY4rHuwdRVttyrDEikKL-9" edge="1"><mxGeometry relative="1" as="geometry"/></mxCell><mxCell id="DY4rHuwdRVttyrDEikKL-10" value="" style="edgeStyle=orthogonalEdgeStyle;rounded=0;orthogonalLoop=1;jettySize=auto;html=1;startArrow=classic;startFill=1;endArrow=none;endFill=0;" parent="1" source="DY4rHuwdRVttyrDEikKL-5" target="DY4rHuwdRVttyrDEikKL-9" edge="1"><mxGeometry relative="1" as="geometry"/></mxCell><mxCell id="DY4rHuwdRVttyrDEikKL-13" value="" style="endArrow=classic;html=1;rounded=0;exitX=0.636;exitY=0.982;exitDx=0;exitDy=0;exitPerimeter=0;" parent="1" source="DY4rHuwdRVttyrDEikKL-2" edge="1"><mxGeometry width="50" height="50" relative="1" as="geometry"><mxPoint x="-1050" y="382.5" as="sourcePoint"/><mxPoint x="-1050" y="510" as="targetPoint"/></mxGeometry></mxCell><mxCell id="DY4rHuwdRVttyrDEikKL-14" value="ホームページ" style="rounded=0;whiteSpace=wrap;html=1;align=left;verticalAlign=top;container=0;" parent="1" vertex="1"><mxGeometry x="-70" y="282" width="180" height="140" as="geometry"/></mxCell><mxCell id="DY4rHuwdRVttyrDEikKL-15" value="三　新規登録　&lt;br&gt;　　ログアウト&lt;br&gt;　ユーザー&lt;br&gt;　チャット" style="rounded=1;whiteSpace=wrap;html=1;container=0;" parent="1" vertex="1"><mxGeometry x="94.76" y="293" width="91" height="98" as="geometry"/></mxCell><mxCell id="DY4rHuwdRVttyrDEikKL-18" value="イベント参加" style="ellipse;whiteSpace=wrap;html=1;container=0;" parent="1" vertex="1"><mxGeometry x="-35" y="362" width="110" height="50" as="geometry"/></mxCell><mxCell id="DY4rHuwdRVttyrDEikKL-22" value="イベント参加" style="rounded=0;whiteSpace=wrap;html=1;align=left;verticalAlign=top;container=0;" parent="1" vertex="1"><mxGeometry x="-90" y="452" width="219" height="110" as="geometry"/></mxCell><mxCell id="DY4rHuwdRVttyrDEikKL-17" style="rounded=0;orthogonalLoop=1;jettySize=auto;html=1;" parent="1" source="DY4rHuwdRVttyrDEikKL-18" target="DY4rHuwdRVttyrDEikKL-22" edge="1"><mxGeometry relative="1" as="geometry"/></mxCell><mxCell id="DY4rHuwdRVttyrDEikKL-31" value="イベントID：" style="rounded=1;whiteSpace=wrap;html=1;align=left;container=0;" parent="1" vertex="1"><mxGeometry x="-40.5" y="482" width="120" height="35" as="geometry"/></mxCell><mxCell id="DY4rHuwdRVttyrDEikKL-33" value="参加" style="rounded=1;whiteSpace=wrap;html=1;container=0;" parent="1" vertex="1"><mxGeometry x="-10.5" y="522" width="60" height="30" as="geometry"/></mxCell><mxCell id="aznICBE8eOVE3PgMrwtk-41" style="edgeStyle=orthogonalEdgeStyle;rounded=0;orthogonalLoop=1;jettySize=auto;html=1;" parent="1" source="DY4rHuwdRVttyrDEikKL-34" target="zaHt_wBv9F0KEou9O8MJ-198" edge="1"><mxGeometry relative="1" as="geometry"><mxPoint x="-135.4960000000002" y="757.35" as="sourcePoint"/></mxGeometry></mxCell><mxCell id="DY4rHuwdRVttyrDEikKL-34" value="イベント" style="rounded=0;whiteSpace=wrap;html=1;align=left;verticalAlign=top;container=0;" parent="1" vertex="1"><mxGeometry x="-90" y="642" width="219" height="170" as="geometry"/></mxCell><mxCell id="DY4rHuwdRVttyrDEikKL-35" value="" style="edgeStyle=orthogonalEdgeStyle;rounded=0;orthogonalLoop=1;jettySize=auto;html=1;" parent="1" source="DY4rHuwdRVttyrDEikKL-22" target="DY4rHuwdRVttyrDEikKL-34" edge="1"><mxGeometry relative="1" as="geometry"/></mxCell><mxCell id="DY4rHuwdRVttyrDEikKL-39" value="OOツアー" style="rounded=0;whiteSpace=wrap;html=1;container=0;" parent="1" vertex="1"><mxGeometry x="-50" y="667" width="120" height="30" as="geometry"/></mxCell><mxCell id="DY4rHuwdRVttyrDEikKL-40" value="三　&amp;nbsp;ログアウト&lt;br&gt;　　ユーザー&lt;br&gt;　　グループ&lt;br&gt;　マップ&lt;br&gt;　　チャット&lt;br&gt;　　緊急通知" style="rounded=1;whiteSpace=wrap;html=1;container=0;" parent="1" vertex="1"><mxGeometry x="105" y="642" width="90" height="110" as="geometry"/></mxCell><mxCell id="DY4rHuwdRVttyrDEikKL-41" value="予定 oo~oo&lt;br&gt;&amp;nbsp; &amp;nbsp; &amp;nbsp; &amp;nbsp;:&lt;br&gt;&amp;nbsp; &amp;nbsp; &amp;nbsp; &amp;nbsp;:&lt;br&gt;&lt;br&gt;&lt;br&gt;期限 oo/oo oo:oo" style="rounded=0;whiteSpace=wrap;html=1;container=0;" parent="1" vertex="1"><mxGeometry x="-50" y="702" width="120" height="100" as="geometry"/></mxCell><mxCell id="939VMe6MDlw07Kl8Ivs7-78" value="情報確認画面に" style="text;html=1;align=center;verticalAlign=middle;resizable=0;points=[];autosize=1;strokeColor=none;fillColor=none;container=0;" parent="1" vertex="1"><mxGeometry x="39.76" y="1530" width="110" height="30" as="geometry"/></mxCell><mxCell id="aznICBE8eOVE3PgMrwtk-39" style="edgeStyle=orthogonalEdgeStyle;rounded=0;orthogonalLoop=1;jettySize=auto;html=1;exitX=0;exitY=0.5;exitDx=0;exitDy=0;" parent="1" source="CKtyOYaQWajw3hzrJsdJ-2" target="aznICBE8eOVE3PgMrwtk-26" edge="1"><mxGeometry relative="1" as="geometry"><mxPoint x="-110" y="331.9000000000001" as="targetPoint"/></mxGeometry></mxCell><mxCell id="CKtyOYaQWajw3hzrJsdJ-2" value="グループ" style="ellipse;whiteSpace=wrap;html=1;container=0;" parent="1" vertex="1"><mxGeometry x="-35" y="307" width="110" height="50" as="geometry"/></mxCell><mxCell id="zaHt_wBv9F0KEou9O8MJ-166" style="rounded=0;orthogonalLoop=1;jettySize=auto;html=1;exitX=1;exitY=1;exitDx=0;exitDy=0;" parent="1" source="zaHt_wBv9F0KEou9O8MJ-96" target="DY4rHuwdRVttyrDEikKL-5" edge="1"><mxGeometry relative="1" as="geometry"><Array as="points"><mxPoint x="-1100" y="380"/></Array></mxGeometry></mxCell><mxCell id="zaHt_wBv9F0KEou9O8MJ-96" value="グループ" style="ellipse;whiteSpace=wrap;html=1;container=0;" parent="1" vertex="1"><mxGeometry x="-1235" y="337.5" width="110" height="50" as="geometry"/></mxCell><mxCell id="zaHt_wBv9F0KEou9O8MJ-99" value="ログインしていない" style="text;html=1;align=center;verticalAlign=middle;resizable=0;points=[];autosize=1;strokeColor=none;fillColor=none;container=0;" parent="1" vertex="1"><mxGeometry x="-1270" y="277.5" width="130" height="30" as="geometry"/></mxCell><mxCell id="zaHt_wBv9F0KEou9O8MJ-153" style="edgeStyle=orthogonalEdgeStyle;rounded=0;orthogonalLoop=1;jettySize=auto;html=1;" parent="1" source="DY4rHuwdRVttyrDEikKL-15" target="zaHt_wBv9F0KEou9O8MJ-100" edge="1"><mxGeometry relative="1" as="geometry"/></mxCell><mxCell id="zaHt_wBv9F0KEou9O8MJ-124" value="登録してあるものが&lt;br&gt;あらかじめ表示" style="text;html=1;align=center;verticalAlign=middle;resizable=0;points=[];autosize=1;strokeColor=none;fillColor=none;container=0;" parent="1" vertex="1"><mxGeometry x="710" y="682" width="130" height="40" as="geometry"/></mxCell><mxCell id="DY4rHuwdRVttyrDEikKL-28" style="rounded=0;orthogonalLoop=1;jettySize=auto;html=1;" parent="1" source="DY4rHuwdRVttyrDEikKL-15" target="DY4rHuwdRVttyrDEikKL-27" edge="1"><mxGeometry relative="1" as="geometry"/></mxCell><mxCell id="zaHt_wBv9F0KEou9O8MJ-154" value="状況変更　例" style="text;html=1;align=center;verticalAlign=middle;resizable=0;points=[];autosize=1;strokeColor=none;fillColor=none;container=0;" parent="1" vertex="1"><mxGeometry x="49.76" y="900" width="100" height="30" as="geometry"/></mxCell><mxCell id="zaHt_wBv9F0KEou9O8MJ-155" value="ログインしている" style="text;html=1;align=center;verticalAlign=middle;resizable=0;points=[];autosize=1;strokeColor=none;fillColor=none;container=0;" parent="1" vertex="1"><mxGeometry x="-65" y="242" width="120" height="30" as="geometry"/></mxCell><mxCell id="CKtyOYaQWajw3hzrJsdJ-11" value="デフォルト両方" style="text;html=1;align=center;verticalAlign=middle;resizable=0;points=[];autosize=1;strokeColor=none;fillColor=none;container=0;" parent="1" vertex="1"><mxGeometry x="799.76" y="1020" width="110" height="30" as="geometry"/></mxCell><mxCell id="zaHt_wBv9F0KEou9O8MJ-159" value="&lt;font style=&quot;font-size: 33px;&quot;&gt;ユーザー&lt;/font&gt;" style="shape=hexagon;perimeter=hexagonPerimeter2;whiteSpace=wrap;html=1;fixedSize=1;container=0;" parent="1" vertex="1"><mxGeometry x="-1368" y="151" width="190" height="112.5" as="geometry"/></mxCell><mxCell id="939VMe6MDlw07Kl8Ivs7-47" value="ユーザー情報確認&lt;br&gt;" style="rounded=0;whiteSpace=wrap;html=1;align=left;verticalAlign=top;container=0;" parent="1" vertex="1"><mxGeometry x="-35.24" y="1290" width="295.24" height="240" as="geometry"/></mxCell><mxCell id="939VMe6MDlw07Kl8Ivs7-49" value="情報の変更&lt;br&gt;ーーーーーーー&lt;br&gt;情報の削除" style="rounded=0;whiteSpace=wrap;html=1;container=0;" parent="1" vertex="1"><mxGeometry x="-35.24" y="1324" width="91" height="60" as="geometry"/></mxCell><mxCell id="939VMe6MDlw07Kl8Ivs7-50" value="自分の状況▼" style="rounded=1;whiteSpace=wrap;html=1;container=0;" parent="1" vertex="1"><mxGeometry x="-35.23749999999995" y="1390.0033958724202" width="93" height="23.80863039399625" as="geometry"/></mxCell><mxCell id="939VMe6MDlw07Kl8Ivs7-51" value="" style="rounded=0;whiteSpace=wrap;html=1;container=0;" parent="1" vertex="1"><mxGeometry x="-35.23749999999995" y="1413.8120262664165" width="93" height="104.7579737335835" as="geometry"/></mxCell><mxCell id="939VMe6MDlw07Kl8Ivs7-52" value="" style="triangle;whiteSpace=wrap;html=1;rotation=90;fillColor=#f8cecc;strokeColor=#b85450;container=0;" parent="1" vertex="1"><mxGeometry x="-27.487499999999947" y="1425.7163414634144" width="16.275000000000002" height="13.49155722326454" as="geometry"/></mxCell><mxCell id="939VMe6MDlw07Kl8Ivs7-53" value="" style="triangle;whiteSpace=wrap;html=1;rotation=90;fillColor=#dae8fc;strokeColor=#6c8ebf;container=0;" parent="1" vertex="1"><mxGeometry x="-27.487499999999947" y="1447.144108818011" width="16.275000000000002" height="13.49155722326454" as="geometry"/></mxCell><mxCell id="939VMe6MDlw07Kl8Ivs7-54" value="" style="triangle;whiteSpace=wrap;html=1;rotation=90;fillColor=#d5e8d4;strokeColor=#82b366;container=0;" parent="1" vertex="1"><mxGeometry x="-27.487499999999947" y="1470.9527392120074" width="16.275000000000002" height="13.49155722326454" as="geometry"/></mxCell><mxCell id="939VMe6MDlw07Kl8Ivs7-55" value="" style="triangle;whiteSpace=wrap;html=1;rotation=90;fillColor=#ffe6cc;strokeColor=#d79b00;container=0;" parent="1" vertex="1"><mxGeometry x="-27.487499999999947" y="1494.7613696060037" width="16.275000000000002" height="13.49155722326454" as="geometry"/></mxCell><mxCell id="939VMe6MDlw07Kl8Ivs7-56" value="迷子" style="text;html=1;align=center;verticalAlign=middle;resizable=0;points=[];autosize=1;strokeColor=none;fillColor=none;container=0;" parent="1" vertex="1"><mxGeometry x="-8.112499999999946" y="1418.9705628517822" width="50" height="30" as="geometry"/></mxCell><mxCell id="939VMe6MDlw07Kl8Ivs7-57" value="通常" style="text;html=1;align=center;verticalAlign=middle;resizable=0;points=[];autosize=1;strokeColor=none;fillColor=none;container=0;" parent="1" vertex="1"><mxGeometry x="-8.112499999999946" y="1442.7791932457785" width="50" height="30" as="geometry"/></mxCell><mxCell id="939VMe6MDlw07Kl8Ivs7-58" value="待機" style="text;html=1;align=center;verticalAlign=middle;resizable=0;points=[];autosize=1;strokeColor=none;fillColor=none;container=0;" parent="1" vertex="1"><mxGeometry x="-8.112499999999946" y="1465.7942026266417" width="50" height="30" as="geometry"/></mxCell><mxCell id="939VMe6MDlw07Kl8Ivs7-59" value="緊急" style="text;html=1;align=center;verticalAlign=middle;resizable=0;points=[];autosize=1;strokeColor=none;fillColor=none;container=0;" parent="1" vertex="1"><mxGeometry x="-8.112499999999946" y="1489.602833020638" width="50" height="30" as="geometry"/></mxCell><mxCell id="DY4rHuwdRVttyrDEikKL-42" value="" style="rounded=0;whiteSpace=wrap;html=1;container=0;" parent="1" vertex="1"><mxGeometry x="-49.00250000000005" y="928.2532833020638" width="298.76250000000005" height="264.27579737335833" as="geometry"/></mxCell><mxCell id="DY4rHuwdRVttyrDEikKL-141" value="" style="triangle;whiteSpace=wrap;html=1;rotation=90;fillColor=#f8cecc;strokeColor=#b85450;container=0;" parent="1" vertex="1"><mxGeometry x="197.83500000000004" y="1108.405253283302" width="16.275000000000002" height="13.49155722326454" as="geometry"/></mxCell><mxCell id="DY4rHuwdRVttyrDEikKL-142" value="" style="ellipse;whiteSpace=wrap;html=1;aspect=fixed;fillColor=#dae8fc;strokeColor=#6c8ebf;container=0;" parent="1" vertex="1"><mxGeometry x="-5.602499999999955" y="975.8705440900562" width="15.499214035799401" height="15.499214035799401" as="geometry"/></mxCell><mxCell id="DY4rHuwdRVttyrDEikKL-143" style="edgeStyle=orthogonalEdgeStyle;rounded=0;orthogonalLoop=1;jettySize=auto;html=1;entryX=0.5;entryY=1;entryDx=0;entryDy=0;" parent="1" source="DY4rHuwdRVttyrDEikKL-141" target="DY4rHuwdRVttyrDEikKL-142" edge="1"><mxGeometry relative="1" as="geometry"><mxPoint x="25.78500000000009" y="974.2833020637898" as="targetPoint"/><Array as="points"><mxPoint x="159.76" y="1112"/><mxPoint x="159.76" y="1040"/><mxPoint x="20.759999999999998" y="1040"/><mxPoint x="20.759999999999998" y="991"/></Array></mxGeometry></mxCell><mxCell id="DY4rHuwdRVttyrDEikKL-145" value="" style="rounded=0;whiteSpace=wrap;html=1;container=0;" parent="1" vertex="1"><mxGeometry x="-49.00250000000005" y="1192.5290806754222" width="298.76250000000005" height="47.6172607879925" as="geometry"/></mxCell><mxCell id="DY4rHuwdRVttyrDEikKL-146" value="自分の状況▼" style="rounded=1;whiteSpace=wrap;html=1;container=0;" parent="1" vertex="1"><mxGeometry x="-29.627500000000047" y="1204.4333958724203" width="93" height="23.80863039399625" as="geometry"/></mxCell><mxCell id="DY4rHuwdRVttyrDEikKL-147" value="集合ルート　　　　　" style="rounded=1;whiteSpace=wrap;html=1;container=0;" parent="1" vertex="1"><mxGeometry x="94.76" y="1199.2748592870544" width="147.25" height="34.12570356472796" as="geometry"/></mxCell><mxCell id="DY4rHuwdRVttyrDEikKL-148" value="作成" style="rounded=1;whiteSpace=wrap;html=1;container=0;" parent="1" vertex="1"><mxGeometry x="195.51" y="1204.4333958724203" width="38.75" height="23.80863039399625" as="geometry"/></mxCell><mxCell id="DY4rHuwdRVttyrDEikKL-149" value="" style="rounded=0;whiteSpace=wrap;html=1;container=0;" parent="1" vertex="1"><mxGeometry x="-29.627500000000047" y="1098.6420262664165" width="93" height="104.7579737335835" as="geometry"/></mxCell><mxCell id="DY4rHuwdRVttyrDEikKL-150" value="" style="triangle;whiteSpace=wrap;html=1;rotation=90;fillColor=#f8cecc;strokeColor=#b85450;container=0;" parent="1" vertex="1"><mxGeometry x="-21.877500000000047" y="1110.5463414634146" width="16.275000000000002" height="13.49155722326454" as="geometry"/></mxCell><mxCell id="DY4rHuwdRVttyrDEikKL-151" value="" style="triangle;whiteSpace=wrap;html=1;rotation=90;fillColor=#dae8fc;strokeColor=#6c8ebf;container=0;" parent="1" vertex="1"><mxGeometry x="-21.877500000000047" y="1131.9741088180112" width="16.275000000000002" height="13.49155722326454" as="geometry"/></mxCell><mxCell id="DY4rHuwdRVttyrDEikKL-152" value="" style="triangle;whiteSpace=wrap;html=1;rotation=90;fillColor=#d5e8d4;strokeColor=#82b366;container=0;" parent="1" vertex="1"><mxGeometry x="-21.877500000000047" y="1155.7827392120075" width="16.275000000000002" height="13.49155722326454" as="geometry"/></mxCell><mxCell id="DY4rHuwdRVttyrDEikKL-153" value="" style="triangle;whiteSpace=wrap;html=1;rotation=90;fillColor=#ffe6cc;strokeColor=#d79b00;container=0;" parent="1" vertex="1"><mxGeometry x="-21.877500000000047" y="1179.5913696060038" width="16.275000000000002" height="13.49155722326454" as="geometry"/></mxCell><mxCell id="DY4rHuwdRVttyrDEikKL-155" value="迷子" style="text;html=1;align=center;verticalAlign=middle;resizable=0;points=[];autosize=1;strokeColor=none;fillColor=none;container=0;" parent="1" vertex="1"><mxGeometry x="-2.5025000000000457" y="1103.8005628517824" width="50" height="30" as="geometry"/></mxCell><mxCell id="DY4rHuwdRVttyrDEikKL-156" value="通常" style="text;html=1;align=center;verticalAlign=middle;resizable=0;points=[];autosize=1;strokeColor=none;fillColor=none;container=0;" parent="1" vertex="1"><mxGeometry x="-2.5025000000000457" y="1127.6091932457787" width="50" height="30" as="geometry"/></mxCell><mxCell id="DY4rHuwdRVttyrDEikKL-157" value="待機" style="text;html=1;align=center;verticalAlign=middle;resizable=0;points=[];autosize=1;strokeColor=none;fillColor=none;container=0;" parent="1" vertex="1"><mxGeometry x="-2.5025000000000457" y="1150.6242026266418" width="50" height="30" as="geometry"/></mxCell><mxCell id="DY4rHuwdRVttyrDEikKL-158" value="緊急" style="text;html=1;align=center;verticalAlign=middle;resizable=0;points=[];autosize=1;strokeColor=none;fillColor=none;container=0;" parent="1" vertex="1"><mxGeometry x="-2.5025000000000457" y="1174.432833020638" width="50" height="30" as="geometry"/></mxCell><mxCell id="939VMe6MDlw07Kl8Ivs7-79" value="マップ上に" style="text;html=1;align=center;verticalAlign=middle;resizable=0;points=[];autosize=1;strokeColor=none;fillColor=none;container=0;" parent="1" vertex="1"><mxGeometry x="54.76" y="1240.15" width="80" height="30" as="geometry"/></mxCell><mxCell id="zaHt_wBv9F0KEou9O8MJ-101" value="&lt;b&gt;ユーザー削除&lt;/b&gt;" style="rounded=0;whiteSpace=wrap;html=1;align=left;verticalAlign=top;container=0;" parent="1" vertex="1"><mxGeometry x="240" y="654.5" width="315" height="110" as="geometry"/></mxCell><mxCell id="939VMe6MDlw07Kl8Ivs7-85" value="削除しますか？&lt;br&gt;はい　いいえ" style="rounded=0;whiteSpace=wrap;html=1;align=center;verticalAlign=top;container=0;" parent="1" vertex="1"><mxGeometry x="252.5" y="694.5" width="130" height="45" as="geometry"/></mxCell><mxCell id="939VMe6MDlw07Kl8Ivs7-86" value="ポップアップ" style="text;html=1;align=center;verticalAlign=middle;resizable=0;points=[];autosize=1;strokeColor=none;fillColor=none;container=0;" parent="1" vertex="1"><mxGeometry x="322.5" y="657" width="100" height="30" as="geometry"/></mxCell><mxCell id="939VMe6MDlw07Kl8Ivs7-87" value="削除しました" style="rounded=0;whiteSpace=wrap;html=1;container=0;" parent="1" vertex="1"><mxGeometry x="422.5" y="687" width="120" height="60" as="geometry"/></mxCell><mxCell id="939VMe6MDlw07Kl8Ivs7-84" style="edgeStyle=orthogonalEdgeStyle;rounded=0;orthogonalLoop=1;jettySize=auto;html=1;" parent="1" source="939VMe6MDlw07Kl8Ivs7-85" target="939VMe6MDlw07Kl8Ivs7-87" edge="1"><mxGeometry relative="1" as="geometry"/></mxCell><mxCell id="zaHt_wBv9F0KEou9O8MJ-100" value="&lt;b&gt;ログアウト&lt;/b&gt;" style="rounded=0;whiteSpace=wrap;html=1;align=left;verticalAlign=top;container=0;" parent="1" vertex="1"><mxGeometry x="287.5" y="287" width="315" height="110" as="geometry"/></mxCell><mxCell id="DY4rHuwdRVttyrDEikKL-24" value="ログアウトしますか？&lt;br&gt;はい　いいえ" style="rounded=0;whiteSpace=wrap;html=1;align=center;verticalAlign=top;container=0;" parent="1" vertex="1"><mxGeometry x="299.5" y="327" width="130" height="50" as="geometry"/></mxCell><mxCell id="939VMe6MDlw07Kl8Ivs7-80" value="ポップアップ" style="text;html=1;align=center;verticalAlign=middle;resizable=0;points=[];autosize=1;strokeColor=none;fillColor=none;container=0;" parent="1" vertex="1"><mxGeometry x="344.5" y="287" width="100" height="30" as="geometry"/></mxCell><mxCell id="939VMe6MDlw07Kl8Ivs7-81" value="ログアウトしました" style="rounded=0;whiteSpace=wrap;html=1;container=0;" parent="1" vertex="1"><mxGeometry x="469.5" y="322" width="120" height="60" as="geometry"/></mxCell><mxCell id="939VMe6MDlw07Kl8Ivs7-82" style="edgeStyle=orthogonalEdgeStyle;rounded=0;orthogonalLoop=1;jettySize=auto;html=1;" parent="1" source="DY4rHuwdRVttyrDEikKL-24" target="939VMe6MDlw07Kl8Ivs7-81" edge="1"><mxGeometry relative="1" as="geometry"/></mxCell><mxCell id="zaHt_wBv9F0KEou9O8MJ-107" value="" style="rounded=0;whiteSpace=wrap;html=1;container=0;" parent="1" vertex="1"><mxGeometry x="570" y="502" width="270" height="180" as="geometry"/></mxCell><mxCell id="zaHt_wBv9F0KEou9O8MJ-125" value="変更" style="rounded=1;whiteSpace=wrap;html=1;container=0;" parent="1" vertex="1"><mxGeometry x="675" y="652" width="60" height="20" as="geometry"/></mxCell><mxCell id="zaHt_wBv9F0KEou9O8MJ-129" value=":" style="text;html=1;align=center;verticalAlign=middle;resizable=0;points=[];autosize=1;strokeColor=none;fillColor=none;container=0;" parent="1" vertex="1"><mxGeometry x="695" y="623" width="30" height="30" as="geometry"/></mxCell><mxCell id="zaHt_wBv9F0KEou9O8MJ-108" value="名前" style="rounded=0;whiteSpace=wrap;html=1;align=left;container=0;" parent="1" vertex="1"><mxGeometry x="575" y="512" width="260.00000000000006" height="20" as="geometry"/></mxCell><mxCell id="zaHt_wBv9F0KEou9O8MJ-112" value="年齢" style="rounded=0;whiteSpace=wrap;html=1;align=left;container=0;" parent="1" vertex="1"><mxGeometry x="575" y="537" width="260.00000000000006" height="20" as="geometry"/></mxCell><mxCell id="zaHt_wBv9F0KEou9O8MJ-115" value="電話番号" style="rounded=0;whiteSpace=wrap;html=1;align=left;container=0;" parent="1" vertex="1"><mxGeometry x="575" y="562" width="260.00000000000006" height="20" as="geometry"/></mxCell><mxCell id="zaHt_wBv9F0KEou9O8MJ-118" value="メアド" style="rounded=0;whiteSpace=wrap;html=1;align=left;container=0;" parent="1" vertex="1"><mxGeometry x="575" y="587" width="260.00000000000006" height="20" as="geometry"/></mxCell><mxCell id="zaHt_wBv9F0KEou9O8MJ-127" value="パスワード" style="rounded=0;whiteSpace=wrap;html=1;align=left;container=0;" parent="1" vertex="1"><mxGeometry x="575" y="612" width="260.00000000000006" height="20" as="geometry"/></mxCell><mxCell id="DY4rHuwdRVttyrDEikKL-27" value="ユーザー情報確認&lt;br&gt;" style="rounded=0;whiteSpace=wrap;html=1;align=left;verticalAlign=top;container=0;" parent="1" vertex="1"><mxGeometry x="240" y="480" width="300" height="150" as="geometry"/></mxCell><mxCell id="DY4rHuwdRVttyrDEikKL-30" value="情報の変更&lt;br&gt;ーーーーーーー&lt;br&gt;情報の削除" style="rounded=0;whiteSpace=wrap;html=1;container=0;" parent="1" vertex="1"><mxGeometry x="239.45" y="517" width="91" height="60" as="geometry"/></mxCell><mxCell id="939VMe6MDlw07Kl8Ivs7-39" value="" style="rounded=0;whiteSpace=wrap;html=1;container=0;" parent="1" vertex="1"><mxGeometry x="289.76" y="1290" width="250" height="170" as="geometry"/></mxCell><mxCell id="939VMe6MDlw07Kl8Ivs7-40" value="相談内容▼&lt;br&gt;予定について" style="rounded=1;whiteSpace=wrap;html=1;container=0;" parent="1" vertex="1"><mxGeometry x="319.76" y="1310" width="190" height="40" as="geometry"/></mxCell><mxCell id="939VMe6MDlw07Kl8Ivs7-41" value="ーーーー&lt;br&gt;ーーーーーーーーーーー&lt;br&gt;ーーーーーーー？" style="rounded=1;whiteSpace=wrap;html=1;container=0;" parent="1" vertex="1"><mxGeometry x="319.76" y="1360" width="190" height="60" as="geometry"/></mxCell><mxCell id="939VMe6MDlw07Kl8Ivs7-42" value="送信" style="rounded=1;whiteSpace=wrap;html=1;container=0;" parent="1" vertex="1"><mxGeometry x="389.76" y="1430" width="50" height="25" as="geometry"/></mxCell><mxCell id="939VMe6MDlw07Kl8Ivs7-44" value="フォーム形式" style="text;html=1;align=center;verticalAlign=middle;resizable=0;points=[];autosize=1;strokeColor=none;fillColor=none;container=0;" parent="1" vertex="1"><mxGeometry x="364.76" y="1460" width="100" height="30" as="geometry"/></mxCell><mxCell id="939VMe6MDlw07Kl8Ivs7-22" value="" style="rounded=0;whiteSpace=wrap;html=1;container=0;" parent="1" vertex="1"><mxGeometry x="289.76" y="930" width="250" height="240" as="geometry"/></mxCell><mxCell id="939VMe6MDlw07Kl8Ivs7-23" value="" style="rounded=0;whiteSpace=wrap;html=1;container=0;" parent="1" vertex="1"><mxGeometry x="289.76" y="1167" width="250" height="60" as="geometry"/></mxCell><mxCell id="939VMe6MDlw07Kl8Ivs7-24" value="送信" style="rounded=1;whiteSpace=wrap;html=1;container=0;" parent="1" vertex="1"><mxGeometry x="479.76" y="1190" width="50" height="25" as="geometry"/></mxCell><mxCell id="939VMe6MDlw07Kl8Ivs7-29" value="" style="rounded=1;whiteSpace=wrap;html=1;container=0;" parent="1" vertex="1"><mxGeometry x="409.76" y="965" width="120" height="35" as="geometry"/></mxCell><mxCell id="939VMe6MDlw07Kl8Ivs7-30" value="" style="rounded=1;whiteSpace=wrap;html=1;container=0;" parent="1" vertex="1"><mxGeometry x="299.76" y="940" width="120" height="20" as="geometry"/></mxCell><mxCell id="939VMe6MDlw07Kl8Ivs7-31" value="" style="rounded=1;whiteSpace=wrap;html=1;container=0;" parent="1" vertex="1"><mxGeometry x="299.76" y="1010" width="120" height="40" as="geometry"/></mxCell><mxCell id="939VMe6MDlw07Kl8Ivs7-32" value="" style="rounded=1;whiteSpace=wrap;html=1;container=0;" parent="1" vertex="1"><mxGeometry x="439.76" y="1060" width="90" height="20" as="geometry"/></mxCell><mxCell id="939VMe6MDlw07Kl8Ivs7-33" value="" style="rounded=1;whiteSpace=wrap;html=1;container=0;" parent="1" vertex="1"><mxGeometry x="409.76" y="1088.5" width="120" height="31.5" as="geometry"/></mxCell><mxCell id="939VMe6MDlw07Kl8Ivs7-34" value="" style="rounded=1;whiteSpace=wrap;html=1;container=0;" parent="1" vertex="1"><mxGeometry x="299.76" y="1130" width="100" height="30" as="geometry"/></mxCell><mxCell id="939VMe6MDlw07Kl8Ivs7-36" value="ーーーーーーー？" style="rounded=1;whiteSpace=wrap;html=1;container=0;" parent="1" vertex="1"><mxGeometry x="299.76" y="1177.5" width="170" height="40" as="geometry"/></mxCell><mxCell id="939VMe6MDlw07Kl8Ivs7-37" value="チャット形式" style="text;html=1;align=center;verticalAlign=middle;resizable=0;points=[];autosize=1;strokeColor=none;fillColor=none;container=0;" parent="1" vertex="1"><mxGeometry x="364.76" y="1228" width="100" height="30" as="geometry"/></mxCell><mxCell id="939VMe6MDlw07Kl8Ivs7-18" value="緊急事態を連絡" style="rounded=0;whiteSpace=wrap;html=1;verticalAlign=top;container=0;" parent="1" vertex="1"><mxGeometry x="579.76" y="930" width="220" height="150" as="geometry"/></mxCell><mxCell id="939VMe6MDlw07Kl8Ivs7-19" value="緊急通知" style="ellipse;whiteSpace=wrap;html=1;container=0;" parent="1" vertex="1"><mxGeometry x="629.76" y="990" width="120" height="75.63" as="geometry"/></mxCell><mxCell id="CKtyOYaQWajw3hzrJsdJ-10" value="通知先▼" style="rounded=1;whiteSpace=wrap;html=1;container=0;" parent="1" vertex="1"><mxGeometry x="629.76" y="960" width="120" height="20" as="geometry"/></mxCell><mxCell id="CKtyOYaQWajw3hzrJsdJ-12" value="両方&lt;br&gt;グループ内&lt;br&gt;管理者" style="rounded=0;whiteSpace=wrap;html=1;container=0;" parent="1" vertex="1"><mxGeometry x="749.76" y="960" width="80" height="60" as="geometry"/></mxCell><mxCell id="zaHt_wBv9F0KEou9O8MJ-165" value="イベントに参加していて、&lt;br&gt;グループに参加していない" style="text;html=1;align=center;verticalAlign=middle;resizable=0;points=[];autosize=1;strokeColor=none;fillColor=none;" parent="1" vertex="1"><mxGeometry x="35" y="602" width="170" height="40" as="geometry"/></mxCell><mxCell id="zaHt_wBv9F0KEou9O8MJ-192" value="" style="rounded=0;whiteSpace=wrap;html=1;container=0;" parent="1" vertex="1"><mxGeometry x="-694.62" y="681.1200000000001" width="160" height="88" as="geometry"/></mxCell><mxCell id="zaHt_wBv9F0KEou9O8MJ-193" value="グループID：　　　" style="rounded=1;whiteSpace=wrap;html=1;container=0;" parent="1" vertex="1"><mxGeometry x="-674.62" y="688.6200000000001" width="120" height="40" as="geometry"/></mxCell><mxCell id="zaHt_wBv9F0KEou9O8MJ-194" value="参加" style="rounded=1;whiteSpace=wrap;html=1;container=0;" parent="1" vertex="1"><mxGeometry x="-644.62" y="733.62" width="60" height="30" as="geometry"/></mxCell><mxCell id="zaHt_wBv9F0KEou9O8MJ-195" value="" style="rounded=0;whiteSpace=wrap;html=1;container=0;" parent="1" vertex="1"><mxGeometry x="-674.62" y="798.09" width="185" height="146" as="geometry"/></mxCell><mxCell id="zaHt_wBv9F0KEou9O8MJ-198" value="" style="rounded=0;whiteSpace=wrap;html=1;container=0;" parent="1" vertex="1"><mxGeometry x="-387.62" y="707.0000000000001" width="190" height="100" as="geometry"/></mxCell><mxCell id="zaHt_wBv9F0KEou9O8MJ-199" style="rounded=0;orthogonalLoop=1;jettySize=auto;html=1;exitX=0;exitY=0.5;exitDx=0;exitDy=0;edgeStyle=orthogonalEdgeStyle;" parent="1" target="zaHt_wBv9F0KEou9O8MJ-192" edge="1"><mxGeometry relative="1" as="geometry"><Array as="points"><mxPoint x="-352.62" y="729.62"/></Array><mxPoint x="-352.62" y="745.5000000000001" as="sourcePoint"/><mxPoint x="-569.62" y="729.6522580645161" as="targetPoint"/></mxGeometry></mxCell><mxCell id="zaHt_wBv9F0KEou9O8MJ-200" style="rounded=0;orthogonalLoop=1;jettySize=auto;html=1;exitX=0;exitY=0.5;exitDx=0;exitDy=0;edgeStyle=orthogonalEdgeStyle;" parent="1" target="zaHt_wBv9F0KEou9O8MJ-195" edge="1"><mxGeometry relative="1" as="geometry"><Array as="points"><mxPoint x="-352.62" y="744.62"/><mxPoint x="-524.62" y="744.62"/></Array><mxPoint x="-352.62" y="741.5000000000001" as="sourcePoint"/><mxPoint x="-597.62" y="799.0000000000001" as="targetPoint"/></mxGeometry></mxCell><mxCell id="zaHt_wBv9F0KEou9O8MJ-201" value="グループを参加" style="rounded=1;whiteSpace=wrap;html=1;container=0;" parent="1" vertex="1"><mxGeometry x="-352.62" y="720.0000000000001" width="120" height="35" as="geometry"/></mxCell><mxCell id="zaHt_wBv9F0KEou9O8MJ-203" value="グループに作成" style="rounded=1;whiteSpace=wrap;html=1;container=0;" parent="1" vertex="1"><mxGeometry x="-352.62" y="765.0000000000001" width="120" height="30" as="geometry"/></mxCell><mxCell id="zaHt_wBv9F0KEou9O8MJ-204" style="edgeStyle=orthogonalEdgeStyle;rounded=0;orthogonalLoop=1;jettySize=auto;html=1;" parent="1" source="zaHt_wBv9F0KEou9O8MJ-205" target="zaHt_wBv9F0KEou9O8MJ-195" edge="1"><mxGeometry relative="1" as="geometry"><Array as="points"><mxPoint x="-524.62" y="970.62"/></Array></mxGeometry></mxCell><mxCell id="zaHt_wBv9F0KEou9O8MJ-205" value="" style="rounded=0;whiteSpace=wrap;html=1;container=0;" parent="1" vertex="1"><mxGeometry x="-372.62" y="879.12" width="160" height="150" as="geometry"/></mxCell><mxCell id="zaHt_wBv9F0KEou9O8MJ-202" style="edgeStyle=orthogonalEdgeStyle;rounded=0;orthogonalLoop=1;jettySize=auto;html=1;" parent="1" source="zaHt_wBv9F0KEou9O8MJ-203" target="zaHt_wBv9F0KEou9O8MJ-205" edge="1"><mxGeometry relative="1" as="geometry"/></mxCell><mxCell id="zaHt_wBv9F0KEou9O8MJ-206" value="グループID：　　　" style="rounded=1;whiteSpace=wrap;html=1;container=0;" parent="1" vertex="1"><mxGeometry x="-352.62" y="888.12" width="120" height="40" as="geometry"/></mxCell><mxCell id="zaHt_wBv9F0KEou9O8MJ-207" value="作成" style="rounded=1;whiteSpace=wrap;html=1;container=0;" parent="1" vertex="1"><mxGeometry x="-322.62" y="989.12" width="60" height="30" as="geometry"/></mxCell><mxCell id="zaHt_wBv9F0KEou9O8MJ-208" value="参加人数：　　　" style="rounded=1;whiteSpace=wrap;html=1;container=0;" parent="1" vertex="1"><mxGeometry x="-353.12" y="939.12" width="120" height="40" as="geometry"/></mxCell><mxCell id="zaHt_wBv9F0KEou9O8MJ-209" value="三　&amp;nbsp;ログアウト&lt;br&gt;　　ユーザー&lt;br&gt;　　グループ&lt;br&gt;　マップ&lt;br&gt;　　チャット&lt;br&gt;　　緊急通知" style="rounded=1;whiteSpace=wrap;html=1;container=0;" parent="1" vertex="1"><mxGeometry x="-517.12" y="798.09" width="90" height="110" as="geometry"/></mxCell><mxCell id="zaHt_wBv9F0KEou9O8MJ-210" value="イベント参加後の&lt;br&gt;グループ" style="text;html=1;align=center;verticalAlign=middle;resizable=0;points=[];autosize=1;strokeColor=none;fillColor=none;" parent="1" vertex="1"><mxGeometry x="-304.62" y="667" width="120" height="40" as="geometry"/></mxCell><mxCell id="zaHt_wBv9F0KEou9O8MJ-211" value="OOツアー" style="rounded=0;whiteSpace=wrap;html=1;container=0;" parent="1" vertex="1"><mxGeometry x="-654.62" y="803.09" width="120" height="30" as="geometry"/></mxCell><mxCell id="zaHt_wBv9F0KEou9O8MJ-212" value="予定 oo~oo&lt;br&gt;&amp;nbsp; &amp;nbsp; &amp;nbsp; &amp;nbsp;:&lt;br&gt;&amp;nbsp; &amp;nbsp; &amp;nbsp; &amp;nbsp;:&lt;br&gt;&lt;br&gt;&lt;br&gt;期限 oo/oo oo:oo" style="rounded=0;whiteSpace=wrap;html=1;container=0;" parent="1" vertex="1"><mxGeometry x="-654.62" y="838.09" width="120" height="100" as="geometry"/></mxCell><mxCell id="zaHt_wBv9F0KEou9O8MJ-217" value="" style="group" parent="1" vertex="1" connectable="0"><mxGeometry x="-894.62" y="804.09" width="183.25" height="140" as="geometry"/></mxCell><mxCell id="zaHt_wBv9F0KEou9O8MJ-213" value="" style="rounded=0;whiteSpace=wrap;html=1;container=0;" parent="zaHt_wBv9F0KEou9O8MJ-217" vertex="1"><mxGeometry width="183.25" height="140" as="geometry"/></mxCell><mxCell id="zaHt_wBv9F0KEou9O8MJ-214" value="グループメンバー&lt;br&gt;OO OO&lt;br&gt;OOO O&lt;br&gt;:&lt;br&gt;:" style="rounded=0;whiteSpace=wrap;html=1;verticalAlign=top;container=0;" parent="zaHt_wBv9F0KEou9O8MJ-217" vertex="1"><mxGeometry x="15" y="15" width="120" height="80" as="geometry"/></mxCell><mxCell id="zaHt_wBv9F0KEou9O8MJ-215" value="退出" style="rounded=1;whiteSpace=wrap;html=1;container=0;" parent="zaHt_wBv9F0KEou9O8MJ-217" vertex="1"><mxGeometry x="107.5" y="99.99999999999977" width="60" height="30" as="geometry"/></mxCell><mxCell id="zaHt_wBv9F0KEou9O8MJ-219" value="" style="endArrow=none;html=1;rounded=0;" parent="1" edge="1"><mxGeometry width="50" height="50" relative="1" as="geometry"><mxPoint x="-1330" y="1525.3181818181818" as="sourcePoint"/><mxPoint x="-1330" y="263.5" as="targetPoint"/></mxGeometry></mxCell><mxCell id="zaHt_wBv9F0KEou9O8MJ-220" value="" style="endArrow=none;html=1;rounded=0;" parent="1" edge="1"><mxGeometry width="50" height="50" relative="1" as="geometry"><mxPoint x="980" y="200" as="sourcePoint"/><mxPoint x="-1180" y="200" as="targetPoint"/></mxGeometry></mxCell><mxCell id="zaHt_wBv9F0KEou9O8MJ-221" value="" style="endArrow=none;html=1;rounded=0;" parent="1" edge="1"><mxGeometry width="50" height="50" relative="1" as="geometry"><mxPoint x="980" y="1500" as="sourcePoint"/><mxPoint x="980" y="200" as="targetPoint"/></mxGeometry></mxCell><mxCell id="aznICBE8eOVE3PgMrwtk-20" value="" style="rounded=0;whiteSpace=wrap;html=1;container=0;" parent="1" vertex="1"><mxGeometry x="-666.75" y="256.0000000000001" width="160" height="88" as="geometry"/></mxCell><mxCell id="aznICBE8eOVE3PgMrwtk-21" value="グループID：　　　" style="rounded=1;whiteSpace=wrap;html=1;container=0;" parent="1" vertex="1"><mxGeometry x="-646.75" y="263.5000000000001" width="120" height="40" as="geometry"/></mxCell><mxCell id="aznICBE8eOVE3PgMrwtk-22" value="参加" style="rounded=1;whiteSpace=wrap;html=1;container=0;" parent="1" vertex="1"><mxGeometry x="-616.75" y="308.5000000000001" width="60" height="30" as="geometry"/></mxCell><mxCell id="aznICBE8eOVE3PgMrwtk-23" value="" style="rounded=0;whiteSpace=wrap;html=1;container=0;" parent="1" vertex="1"><mxGeometry x="-666.75" y="374" width="205" height="140" as="geometry"/></mxCell><mxCell id="aznICBE8eOVE3PgMrwtk-24" value="グループメンバー&lt;br&gt;OO OO&lt;br&gt;OOO O&lt;br&gt;:&lt;br&gt;:" style="rounded=0;whiteSpace=wrap;html=1;verticalAlign=top;container=0;" parent="1" vertex="1"><mxGeometry x="-651.75" y="389" width="120" height="80" as="geometry"/></mxCell><mxCell id="aznICBE8eOVE3PgMrwtk-25" value="退出" style="rounded=1;whiteSpace=wrap;html=1;container=0;" parent="1" vertex="1"><mxGeometry x="-559.25" y="474" width="60" height="30" as="geometry"/></mxCell><mxCell id="aznICBE8eOVE3PgMrwtk-26" value="" style="rounded=0;whiteSpace=wrap;html=1;container=0;" parent="1" vertex="1"><mxGeometry x="-359.75" y="281.8800000000001" width="190" height="100" as="geometry"/></mxCell><mxCell id="aznICBE8eOVE3PgMrwtk-27" style="rounded=0;orthogonalLoop=1;jettySize=auto;html=1;exitX=0;exitY=0.5;exitDx=0;exitDy=0;edgeStyle=orthogonalEdgeStyle;" parent="1" target="aznICBE8eOVE3PgMrwtk-20" edge="1"><mxGeometry relative="1" as="geometry"><Array as="points"><mxPoint x="-324.75" y="304.5"/></Array><mxPoint x="-324.75" y="320.3800000000001" as="sourcePoint"/><mxPoint x="-541.75" y="304.5322580645161" as="targetPoint"/></mxGeometry></mxCell><mxCell id="aznICBE8eOVE3PgMrwtk-28" style="rounded=0;orthogonalLoop=1;jettySize=auto;html=1;exitX=0;exitY=0.5;exitDx=0;exitDy=0;edgeStyle=orthogonalEdgeStyle;" parent="1" target="aznICBE8eOVE3PgMrwtk-23" edge="1"><mxGeometry relative="1" as="geometry"><Array as="points"><mxPoint x="-324.75" y="319.5"/><mxPoint x="-496.75" y="319.5"/></Array><mxPoint x="-324.75" y="316.3800000000001" as="sourcePoint"/><mxPoint x="-569.75" y="373.8800000000001" as="targetPoint"/></mxGeometry></mxCell><mxCell id="aznICBE8eOVE3PgMrwtk-29" value="グループを参加" style="rounded=1;whiteSpace=wrap;html=1;container=0;" parent="1" vertex="1"><mxGeometry x="-324.75" y="294.88" width="120.5" height="35" as="geometry"/></mxCell><mxCell id="aznICBE8eOVE3PgMrwtk-30" style="edgeStyle=orthogonalEdgeStyle;rounded=0;orthogonalLoop=1;jettySize=auto;html=1;" parent="1" source="aznICBE8eOVE3PgMrwtk-31" target="aznICBE8eOVE3PgMrwtk-33" edge="1"><mxGeometry relative="1" as="geometry"/></mxCell><mxCell id="aznICBE8eOVE3PgMrwtk-31" value="グループに作成" style="rounded=1;whiteSpace=wrap;html=1;container=0;" parent="1" vertex="1"><mxGeometry x="-324.75" y="339.8800000000001" width="120" height="30" as="geometry"/></mxCell><mxCell id="aznICBE8eOVE3PgMrwtk-32" style="edgeStyle=orthogonalEdgeStyle;rounded=0;orthogonalLoop=1;jettySize=auto;html=1;" parent="1" source="aznICBE8eOVE3PgMrwtk-33" target="aznICBE8eOVE3PgMrwtk-23" edge="1"><mxGeometry relative="1" as="geometry"><Array as="points"><mxPoint x="-496.75" y="545.5"/></Array></mxGeometry></mxCell><mxCell id="aznICBE8eOVE3PgMrwtk-33" value="" style="rounded=0;whiteSpace=wrap;html=1;container=0;" parent="1" vertex="1"><mxGeometry x="-344.75" y="454" width="160" height="150" as="geometry"/></mxCell><mxCell id="aznICBE8eOVE3PgMrwtk-34" value="グループID：　　　" style="rounded=1;whiteSpace=wrap;html=1;container=0;" parent="1" vertex="1"><mxGeometry x="-324.75" y="463" width="120" height="40" as="geometry"/></mxCell><mxCell id="aznICBE8eOVE3PgMrwtk-35" value="作成" style="rounded=1;whiteSpace=wrap;html=1;container=0;" parent="1" vertex="1"><mxGeometry x="-294.75" y="564" width="60" height="30" as="geometry"/></mxCell><mxCell id="aznICBE8eOVE3PgMrwtk-36" value="参加人数：　　　" style="rounded=1;whiteSpace=wrap;html=1;container=0;" parent="1" vertex="1"><mxGeometry x="-325.25" y="514" width="120" height="40" as="geometry"/></mxCell><mxCell id="aznICBE8eOVE3PgMrwtk-37" value="三　&amp;nbsp;ログアウト&lt;br&gt;　　ユーザー&lt;br&gt;　　グループ&lt;br&gt;　マップ&lt;br&gt;　　チャット&lt;br&gt;　　緊急通知" style="rounded=1;whiteSpace=wrap;html=1;container=0;" parent="1" vertex="1"><mxGeometry x="-489.25" y="374" width="90" height="110" as="geometry"/></mxCell><mxCell id="aznICBE8eOVE3PgMrwtk-38" value="個人の旅行" style="text;html=1;align=center;verticalAlign=middle;resizable=0;points=[];autosize=1;strokeColor=none;fillColor=none;" parent="1" vertex="1"><mxGeometry x="-248" y="257" width="80" height="30" as="geometry"/></mxCell><mxCell id="13" value="" style="group" parent="1" vertex="1" connectable="0"><mxGeometry x="-924" y="510" width="190" height="120" as="geometry"/></mxCell><mxCell id="3" value="名前" style="rounded=0;whiteSpace=wrap;html=1;align=left;container=0;" parent="13" vertex="1"><mxGeometry width="190" height="20" as="geometry"/></mxCell><mxCell id="5" value="年齢" style="rounded=0;whiteSpace=wrap;html=1;align=left;container=0;" parent="13" vertex="1"><mxGeometry y="25" width="190" height="20" as="geometry"/></mxCell><mxCell id="7" value="電話番号" style="rounded=0;whiteSpace=wrap;html=1;align=left;container=0;" parent="13" vertex="1"><mxGeometry y="50" width="190" height="20" as="geometry"/></mxCell><mxCell id="9" value="メアド" style="rounded=0;whiteSpace=wrap;html=1;align=left;container=0;" parent="13" vertex="1"><mxGeometry y="75" width="190" height="20" as="geometry"/></mxCell><mxCell id="11" value="パスワード" style="rounded=0;whiteSpace=wrap;html=1;align=left;container=0;" parent="13" vertex="1"><mxGeometry y="100" width="190" height="20" as="geometry"/></mxCell><mxCell id="14" value="" style="group" parent="13" vertex="1" connectable="0"><mxGeometry x="62.28" y="3.34" width="125.72" height="113.33" as="geometry"/></mxCell><mxCell id="4" value="&lt;font color=&quot;#828282&quot;&gt;OO OO&lt;/font&gt;" style="rounded=1;whiteSpace=wrap;html=1;container=0;" parent="14" vertex="1"><mxGeometry width="125.72000000000003" height="13.339999999999986" as="geometry"/></mxCell><mxCell id="6" value="&lt;font color=&quot;#828282&quot;&gt;OO&lt;/font&gt;" style="rounded=1;whiteSpace=wrap;html=1;container=0;" parent="14" vertex="1"><mxGeometry y="24.98999999999998" width="125.72000000000003" height="13.339999999999986" as="geometry"/></mxCell><mxCell id="8" value="&lt;font color=&quot;#828282&quot;&gt;OOO-OOOO-OOOO&lt;/font&gt;" style="rounded=1;whiteSpace=wrap;html=1;container=0;" parent="14" vertex="1"><mxGeometry y="49.98999999999995" width="125.72000000000003" height="13.339999999999986" as="geometry"/></mxCell><mxCell id="10" value="&lt;font color=&quot;#828282&quot;&gt;OOOO@OO.OO&lt;/font&gt;" style="rounded=1;whiteSpace=wrap;html=1;container=0;" parent="14" vertex="1"><mxGeometry y="74.99000000000004" width="125.72000000000003" height="13.339999999999986" as="geometry"/></mxCell><mxCell id="12" value="&lt;font color=&quot;#828282&quot;&gt;----------------------------&lt;/font&gt;" style="rounded=1;whiteSpace=wrap;html=1;container=0;" parent="14" vertex="1"><mxGeometry y="99.99000000000001" width="125.72000000000003" height="13.339999999999986" as="geometry"/></mxCell><mxCell id="15" value="" style="group" parent="1" vertex="1" connectable="0"><mxGeometry x="640" y="515.34" width="191.64" height="113.33" as="geometry"/></mxCell><mxCell id="zaHt_wBv9F0KEou9O8MJ-109" value="&lt;font color=&quot;#828282&quot;&gt;OO OO&lt;/font&gt;" style="rounded=1;whiteSpace=wrap;html=1;container=0;" parent="15" vertex="1"><mxGeometry width="191.64" height="13.339999999999982" as="geometry"/></mxCell><mxCell id="zaHt_wBv9F0KEou9O8MJ-121" value="&lt;font color=&quot;#828282&quot;&gt;OO&lt;/font&gt;" style="rounded=1;whiteSpace=wrap;html=1;container=0;" parent="15" vertex="1"><mxGeometry y="24.989999999999977" width="191.64" height="13.339999999999982" as="geometry"/></mxCell><mxCell id="zaHt_wBv9F0KEou9O8MJ-122" value="&lt;font color=&quot;#828282&quot;&gt;OOO-OOOO-OOOO&lt;/font&gt;" style="rounded=1;whiteSpace=wrap;html=1;container=0;" parent="15" vertex="1"><mxGeometry y="49.989999999999945" width="191.64" height="13.339999999999982" as="geometry"/></mxCell><mxCell id="zaHt_wBv9F0KEou9O8MJ-123" value="&lt;font color=&quot;#828282&quot;&gt;OOOO@OO.OO&lt;/font&gt;" style="rounded=1;whiteSpace=wrap;html=1;container=0;" parent="15" vertex="1"><mxGeometry y="74.99000000000002" width="191.64" height="13.339999999999982" as="geometry"/></mxCell><mxCell id="zaHt_wBv9F0KEou9O8MJ-128" value="&lt;font color=&quot;#828282&quot;&gt;----------------------------&lt;/font&gt;" style="rounded=1;whiteSpace=wrap;html=1;container=0;" parent="15" vertex="1"><mxGeometry y="99.99" width="191.64" height="13.339999999999982" as="geometry"/></mxCell><mxCell id="16" value="登録" style="rounded=1;whiteSpace=wrap;html=1;container=0;" parent="1" vertex="1"><mxGeometry x="-859.25" y="635.88" width="60" height="18.62" as="geometry"/></mxCell><mxCell id="17" value="名前" style="rounded=0;whiteSpace=wrap;html=1;align=left;container=0;" parent="1" vertex="1"><mxGeometry x="-1186" y="542.25" width="175.5" height="20" as="geometry"/></mxCell><mxCell id="18" value="パスワード" style="rounded=0;whiteSpace=wrap;html=1;align=left;container=0;" parent="1" vertex="1"><mxGeometry x="-1186" y="567.25" width="175.5" height="20" as="geometry"/></mxCell><mxCell id="21" value="" style="group" parent="1" vertex="1" connectable="0"><mxGeometry x="-1120.72" y="545.59" width="101.22" height="38.33" as="geometry"/></mxCell><mxCell id="19" value="&lt;font color=&quot;#828282&quot;&gt;OO OO&lt;/font&gt;" style="rounded=1;whiteSpace=wrap;html=1;container=0;" parent="21" vertex="1"><mxGeometry width="101.22" height="13.339999999999971" as="geometry"/></mxCell><mxCell id="20" value="&lt;font color=&quot;#828282&quot;&gt;OO&lt;/font&gt;" style="rounded=1;whiteSpace=wrap;html=1;container=0;" parent="21" vertex="1"><mxGeometry y="24.98999999999998" width="101.22" height="13.339999999999971" as="geometry"/></mxCell><mxCell id="22" value="ログイン" style="rounded=1;whiteSpace=wrap;html=1;container=0;" parent="1" vertex="1"><mxGeometry x="-1133" y="590.94" width="60" height="18.62" as="geometry"/></mxCell><mxCell id="23" value="" style="edgeStyle=orthogonalEdgeStyle;rounded=0;orthogonalLoop=1;jettySize=auto;html=1;startArrow=none;startFill=0;exitX=0.995;exitY=0.661;exitDx=0;exitDy=0;exitPerimeter=0;entryX=0.007;entryY=0.606;entryDx=0;entryDy=0;entryPerimeter=0;" parent="1" source="DY4rHuwdRVttyrDEikKL-5" target="DY4rHuwdRVttyrDEikKL-9" edge="1"><mxGeometry relative="1" as="geometry"><mxPoint x="-993.5000000000002" y="583.0769230769229" as="sourcePoint"/><mxPoint x="-924.5" y="583.7692307692305" as="targetPoint"/></mxGeometry></mxCell><mxCell id="35" value="" style="group" parent="1" vertex="1" connectable="0"><mxGeometry x="340" y="500" width="190" height="120" as="geometry"/></mxCell><mxCell id="24" value="名前　　　　OOOO" style="rounded=0;whiteSpace=wrap;html=1;align=left;container=0;" parent="35" vertex="1"><mxGeometry width="190.00000000000006" height="20" as="geometry"/></mxCell><mxCell id="25" value="年齢　　　　OO" style="rounded=0;whiteSpace=wrap;html=1;align=left;container=0;" parent="35" vertex="1"><mxGeometry y="25" width="190.00000000000006" height="20" as="geometry"/></mxCell><mxCell id="26" value="電話番号　　OOO-OOOO-OOOO" style="rounded=0;whiteSpace=wrap;html=1;align=left;container=0;" parent="35" vertex="1"><mxGeometry y="50" width="190.00000000000006" height="20" as="geometry"/></mxCell><mxCell id="27" value="メアド　　　OOOO@OO.OOO" style="rounded=0;whiteSpace=wrap;html=1;align=left;container=0;" parent="35" vertex="1"><mxGeometry y="75" width="190.00000000000006" height="20" as="geometry"/></mxCell><mxCell id="28" value="パスワード　OOOOOOOOO" style="rounded=0;whiteSpace=wrap;html=1;align=left;container=0;" parent="35" vertex="1"><mxGeometry y="100" width="190.00000000000006" height="20" as="geometry"/></mxCell><mxCell id="36" value="" style="group" parent="1" vertex="1" connectable="0"><mxGeometry x="64" y="1324" width="190" height="120" as="geometry"/></mxCell><mxCell id="37" value="名前　　　　OOOO" style="rounded=0;whiteSpace=wrap;html=1;align=left;container=0;" parent="36" vertex="1"><mxGeometry width="190.00000000000006" height="20" as="geometry"/></mxCell><mxCell id="38" value="年齢　　　　OO" style="rounded=0;whiteSpace=wrap;html=1;align=left;container=0;" parent="36" vertex="1"><mxGeometry y="25" width="190.00000000000006" height="20" as="geometry"/></mxCell><mxCell id="39" value="電話番号　　OOO-OOOO-OOOO" style="rounded=0;whiteSpace=wrap;html=1;align=left;container=0;" parent="36" vertex="1"><mxGeometry y="50" width="190.00000000000006" height="20" as="geometry"/></mxCell><mxCell id="40" value="メアド　　　OOOO@OO.OOO" style="rounded=0;whiteSpace=wrap;html=1;align=left;container=0;" parent="36" vertex="1"><mxGeometry y="75" width="190.00000000000006" height="20" as="geometry"/></mxCell><mxCell id="41" value="パスワード　OOOOOOOOO" style="rounded=0;whiteSpace=wrap;html=1;align=left;container=0;" parent="36" vertex="1"><mxGeometry y="100" width="190.00000000000006" height="20" as="geometry"/></mxCell><mxCell id="51" style="edgeStyle=none;html=1;startArrow=none;startFill=0;endArrow=none;endFill=0;" parent="1" source="42" target="50" edge="1"><mxGeometry relative="1" as="geometry"/></mxCell><mxCell id="42" value="ログイン" style="rounded=0;whiteSpace=wrap;html=1;align=left;container=0;verticalAlign=top;" parent="1" vertex="1"><mxGeometry x="1310" y="207.38" width="189.5" height="112.62" as="geometry"/></mxCell><mxCell id="43" value="名前" style="rounded=0;whiteSpace=wrap;html=1;align=left;container=0;" parent="1" vertex="1"><mxGeometry x="1317" y="237.88" width="175.5" height="20" as="geometry"/></mxCell><mxCell id="44" value="パスワード" style="rounded=0;whiteSpace=wrap;html=1;align=left;container=0;" parent="1" vertex="1"><mxGeometry x="1317" y="262.88" width="175.5" height="20" as="geometry"/></mxCell><mxCell id="45" value="" style="group" parent="1" vertex="1" connectable="0"><mxGeometry x="1382.28" y="241.22000000000003" width="101.22" height="38.33" as="geometry"/></mxCell><mxCell id="46" value="&lt;font color=&quot;#828282&quot;&gt;OO OO&lt;/font&gt;" style="rounded=1;whiteSpace=wrap;html=1;container=0;" parent="45" vertex="1"><mxGeometry width="101.22" height="13.339999999999971" as="geometry"/></mxCell><mxCell id="47" value="&lt;font color=&quot;#828282&quot;&gt;OO&lt;/font&gt;" style="rounded=1;whiteSpace=wrap;html=1;container=0;" parent="45" vertex="1"><mxGeometry y="24.98999999999998" width="101.22" height="13.339999999999971" as="geometry"/></mxCell><mxCell id="48" value="ログイン" style="rounded=1;whiteSpace=wrap;html=1;container=0;" parent="1" vertex="1"><mxGeometry x="1370" y="286.57000000000005" width="60" height="18.62" as="geometry"/></mxCell><mxCell id="50" value="管理者画面" style="rounded=0;whiteSpace=wrap;html=1;align=left;verticalAlign=top;" parent="1" vertex="1"><mxGeometry x="1297.13" y="381.88" width="215.25" height="108.12" as="geometry"/></mxCell></root></mxGraphModel></diagram><diagram id="Mw7TdFYAKqcLlkiDyi-z" name="ヘッダーフッター"><mxGraphModel dx="2415" dy="552" grid="1" gridSize="10" guides="1" tooltips="1" connect="1" arrows="1" fold="1" page="1" pageScale="1" pageWidth="827" pageHeight="1169" math="0" shadow="0"><root><mxCell id="0"/><mxCell id="1" parent="0"/><mxCell id="VL4xiusEs2z7-2usXmgG-4" value="" style="group" vertex="1" connectable="0" parent="1"><mxGeometry x="-1560" y="240" width="681" height="345" as="geometry"/></mxCell><mxCell id="QnVhDUHn_MNhi_mZoglo-1" value="&lt;b&gt;ロストトラッカー&lt;br&gt;&lt;/b&gt;" style="rounded=0;whiteSpace=wrap;html=1;align=left;verticalAlign=top;container=0;" vertex="1" parent="VL4xiusEs2z7-2usXmgG-4"><mxGeometry width="680" height="340" as="geometry"/></mxCell><mxCell id="Q_v14pm5iRz3Xs26hk_D-1" value="&lt;span style=&quot;text-align: right;&quot;&gt;新規登録　ログイン&lt;/span&gt;" style="text;html=1;align=center;verticalAlign=middle;resizable=0;points=[];autosize=1;strokeColor=none;fillColor=none;" vertex="1" parent="VL4xiusEs2z7-2usXmgG-4"><mxGeometry x="550" y="20" width="130" height="30" as="geometry"/></mxCell><mxCell id="VL4xiusEs2z7-2usXmgG-1" value="©2023 groupF" style="text;html=1;align=center;verticalAlign=middle;resizable=0;points=[];autosize=1;strokeColor=none;fillColor=none;" vertex="1" parent="VL4xiusEs2z7-2usXmgG-4"><mxGeometry x="290" y="315" width="100" height="30" as="geometry"/></mxCell><mxCell id="VL4xiusEs2z7-2usXmgG-2" value="" style="endArrow=none;html=1;" edge="1" parent="VL4xiusEs2z7-2usXmgG-4"><mxGeometry width="50" height="50" relative="1" as="geometry"><mxPoint y="23" as="sourcePoint"/><mxPoint x="680" y="23" as="targetPoint"/></mxGeometry></mxCell><mxCell id="VL4xiusEs2z7-2usXmgG-3" value="" style="endArrow=none;html=1;" edge="1" parent="VL4xiusEs2z7-2usXmgG-4"><mxGeometry width="50" height="50" relative="1" as="geometry"><mxPoint x="1" y="45" as="sourcePoint"/><mxPoint x="681" y="45" as="targetPoint"/></mxGeometry></mxCell></root></mxGraphModel></diagram><diagram id="_S1yoDwLZsszk18r8bNs" name="新規登録"><mxGraphModel dx="2415" dy="552" grid="1" gridSize="10" guides="1" tooltips="1" connect="1" arrows="1" fold="1" page="1" pageScale="1" pageWidth="827" pageHeight="1169" math="0" shadow="0"><root><mxCell id="0"/><mxCell id="1" parent="0"/><mxCell id="a6KYMl1TRhBwHGDXpXho-1" value="" style="group" vertex="1" connectable="0" parent="1"><mxGeometry x="-1560" y="240" width="681" height="440" as="geometry"/></mxCell><mxCell id="a6KYMl1TRhBwHGDXpXho-2" value="&lt;b&gt;ロストトラッカー&lt;br&gt;&lt;/b&gt;" style="rounded=0;whiteSpace=wrap;html=1;align=left;verticalAlign=top;container=0;" vertex="1" parent="a6KYMl1TRhBwHGDXpXho-1"><mxGeometry width="680" height="440" as="geometry"/></mxCell><mxCell id="a6KYMl1TRhBwHGDXpXho-3" value="&lt;span style=&quot;text-align: right;&quot;&gt;新規登録　ログイン&lt;/span&gt;" style="text;html=1;align=center;verticalAlign=middle;resizable=0;points=[];autosize=1;strokeColor=none;fillColor=none;" vertex="1" parent="a6KYMl1TRhBwHGDXpXho-1"><mxGeometry x="550" y="20" width="130" height="30" as="geometry"/></mxCell><mxCell id="a6KYMl1TRhBwHGDXpXho-4" value="©2023 groupF" style="text;html=1;align=center;verticalAlign=middle;resizable=0;points=[];autosize=1;strokeColor=none;fillColor=none;" vertex="1" parent="a6KYMl1TRhBwHGDXpXho-1"><mxGeometry x="287" y="414" width="100" height="30" as="geometry"/></mxCell><mxCell id="a6KYMl1TRhBwHGDXpXho-5" value="" style="endArrow=none;html=1;" edge="1" parent="a6KYMl1TRhBwHGDXpXho-1"><mxGeometry width="50" height="50" relative="1" as="geometry"><mxPoint y="23" as="sourcePoint"/><mxPoint x="680" y="23" as="targetPoint"/></mxGeometry></mxCell><mxCell id="a6KYMl1TRhBwHGDXpXho-6" value="" style="endArrow=none;html=1;" edge="1" parent="a6KYMl1TRhBwHGDXpXho-1"><mxGeometry width="50" height="50" relative="1" as="geometry"><mxPoint x="1" y="45" as="sourcePoint"/><mxPoint x="681" y="45" as="targetPoint"/></mxGeometry></mxCell><mxCell id="aInv-O4k3da4-c5yWf5v-14" value="" style="group" vertex="1" connectable="0" parent="a6KYMl1TRhBwHGDXpXho-1"><mxGeometry x="173.5" y="90" width="380" height="280" as="geometry"/></mxCell><mxCell id="aInv-O4k3da4-c5yWf5v-15" value="" style="rounded=1;whiteSpace=wrap;html=1;" vertex="1" parent="aInv-O4k3da4-c5yWf5v-14"><mxGeometry x="-40" y="-20.02" width="420" height="295.02" as="geometry"/></mxCell><mxCell id="aInv-O4k3da4-c5yWf5v-13" value="登録" style="rounded=1;whiteSpace=wrap;html=1;container=0;" vertex="1" parent="aInv-O4k3da4-c5yWf5v-14"><mxGeometry x="114.26368421052628" y="234.99688581314877" width="105.47368421052629" height="33.503114186851214" as="geometry"/></mxCell><mxCell id="aInv-O4k3da4-c5yWf5v-2" value="名前" style="rounded=0;whiteSpace=wrap;html=1;align=left;container=0;" vertex="1" parent="aInv-O4k3da4-c5yWf5v-14"><mxGeometry y="4" width="333.9999999999999" height="35.98615916955018" as="geometry"/></mxCell><mxCell id="aInv-O4k3da4-c5yWf5v-3" value="年齢" style="rounded=0;whiteSpace=wrap;html=1;align=left;container=0;" vertex="1" parent="aInv-O4k3da4-c5yWf5v-14"><mxGeometry y="48.982698961937714" width="333.9999999999999" height="35.98615916955018" as="geometry"/></mxCell><mxCell id="aInv-O4k3da4-c5yWf5v-4" value="電話番号" style="rounded=0;whiteSpace=wrap;html=1;align=left;container=0;" vertex="1" parent="aInv-O4k3da4-c5yWf5v-14"><mxGeometry y="93.96539792387543" width="333.9999999999999" height="35.98615916955018" as="geometry"/></mxCell><mxCell id="aInv-O4k3da4-c5yWf5v-5" value="メール" style="rounded=0;whiteSpace=wrap;html=1;align=left;container=0;" vertex="1" parent="aInv-O4k3da4-c5yWf5v-14"><mxGeometry y="138.94809688581313" width="333.9999999999999" height="35.98615916955018" as="geometry"/></mxCell><mxCell id="aInv-O4k3da4-c5yWf5v-6" value="パスワード" style="rounded=0;whiteSpace=wrap;html=1;align=left;container=0;" vertex="1" parent="aInv-O4k3da4-c5yWf5v-14"><mxGeometry y="183.93079584775086" width="333.9999999999999" height="35.98615916955018" as="geometry"/></mxCell><mxCell id="aInv-O4k3da4-c5yWf5v-8" value="&lt;font color=&quot;#828282&quot;&gt;OO OO&lt;/font&gt;" style="rounded=1;whiteSpace=wrap;html=1;container=0;" vertex="1" parent="aInv-O4k3da4-c5yWf5v-14"><mxGeometry x="109.48168421052625" y="10.009688581314936" width="221.00252631578948" height="24.002768166089936" as="geometry"/></mxCell><mxCell id="aInv-O4k3da4-c5yWf5v-9" value="&lt;font color=&quot;#828282&quot;&gt;OO&lt;/font&gt;" style="rounded=1;whiteSpace=wrap;html=1;container=0;" vertex="1" parent="aInv-O4k3da4-c5yWf5v-14"><mxGeometry x="109.48168421052625" y="54.97439446366789" width="221.00252631578948" height="24.002768166089936" as="geometry"/></mxCell><mxCell id="aInv-O4k3da4-c5yWf5v-10" value="&lt;font color=&quot;#828282&quot;&gt;OOO-OOOO-OOOO&lt;/font&gt;" style="rounded=1;whiteSpace=wrap;html=1;container=0;" vertex="1" parent="aInv-O4k3da4-c5yWf5v-14"><mxGeometry x="109.48168421052625" y="99.95709342560541" width="221.00252631578948" height="24.002768166089936" as="geometry"/></mxCell><mxCell id="aInv-O4k3da4-c5yWf5v-11" value="&lt;font color=&quot;#828282&quot;&gt;OOOO@OO.OO&lt;/font&gt;" style="rounded=1;whiteSpace=wrap;html=1;container=0;" vertex="1" parent="aInv-O4k3da4-c5yWf5v-14"><mxGeometry x="109.48168421052625" y="144.93979238754332" width="221.00252631578948" height="24.002768166089936" as="geometry"/></mxCell><mxCell id="aInv-O4k3da4-c5yWf5v-12" value="&lt;font color=&quot;#828282&quot;&gt;OOOOOOOOOO&lt;/font&gt;" style="rounded=1;whiteSpace=wrap;html=1;container=0;" vertex="1" parent="aInv-O4k3da4-c5yWf5v-14"><mxGeometry x="109.48168421052625" y="189.92249134948102" width="221.00252631578948" height="24.002768166089936" as="geometry"/></mxCell><mxCell id="2tz04zFlt5D9Ie90kAOd-1" value="戻る" style="rounded=1;whiteSpace=wrap;html=1;" vertex="1" parent="1"><mxGeometry x="-1560" y="290" width="60" height="30" as="geometry"/></mxCell></root></mxGraphModel></diagram><diagram id="4QH6oVXaptUQVuQMbXxh" name="ログイン"><mxGraphModel dx="2415" dy="552" grid="1" gridSize="10" guides="1" tooltips="1" connect="1" arrows="1" fold="1" page="1" pageScale="1" pageWidth="827" pageHeight="1169" math="0" shadow="0"><root><mxCell id="0"/><mxCell id="1" parent="0"/><mxCell id="z3uWCpboXsAbwgEmPEA8-1" value="" style="group" vertex="1" connectable="0" parent="1"><mxGeometry x="-1560" y="240" width="681" height="345" as="geometry"/></mxCell><mxCell id="z3uWCpboXsAbwgEmPEA8-2" value="&lt;b&gt;ロストトラッカー&lt;br&gt;&lt;/b&gt;" style="rounded=0;whiteSpace=wrap;html=1;align=left;verticalAlign=top;container=0;" vertex="1" parent="z3uWCpboXsAbwgEmPEA8-1"><mxGeometry width="680" height="340" as="geometry"/></mxCell><mxCell id="z3uWCpboXsAbwgEmPEA8-3" value="&lt;span style=&quot;text-align: right;&quot;&gt;新規登録　ログイン&lt;/span&gt;" style="text;html=1;align=center;verticalAlign=middle;resizable=0;points=[];autosize=1;strokeColor=none;fillColor=none;" vertex="1" parent="z3uWCpboXsAbwgEmPEA8-1"><mxGeometry x="550" y="20" width="130" height="30" as="geometry"/></mxCell><mxCell id="z3uWCpboXsAbwgEmPEA8-4" value="©2023 groupF" style="text;html=1;align=center;verticalAlign=middle;resizable=0;points=[];autosize=1;strokeColor=none;fillColor=none;" vertex="1" parent="z3uWCpboXsAbwgEmPEA8-1"><mxGeometry x="290" y="315" width="100" height="30" as="geometry"/></mxCell><mxCell id="z3uWCpboXsAbwgEmPEA8-5" value="" style="endArrow=none;html=1;" edge="1" parent="z3uWCpboXsAbwgEmPEA8-1"><mxGeometry width="50" height="50" relative="1" as="geometry"><mxPoint y="23" as="sourcePoint"/><mxPoint x="680" y="23" as="targetPoint"/></mxGeometry></mxCell><mxCell id="z3uWCpboXsAbwgEmPEA8-6" value="" style="endArrow=none;html=1;" edge="1" parent="z3uWCpboXsAbwgEmPEA8-1"><mxGeometry width="50" height="50" relative="1" as="geometry"><mxPoint x="1" y="45" as="sourcePoint"/><mxPoint x="681" y="45" as="targetPoint"/></mxGeometry></mxCell><mxCell id="Kgc-H7gb6Vj335qYyoxm-16" value="" style="group" vertex="1" connectable="0" parent="z3uWCpboXsAbwgEmPEA8-1"><mxGeometry x="132.25" y="77" width="415.5" height="210" as="geometry"/></mxCell><mxCell id="Kgc-H7gb6Vj335qYyoxm-15" value="" style="rounded=1;whiteSpace=wrap;html=1;container=0;" vertex="1" parent="Kgc-H7gb6Vj335qYyoxm-16"><mxGeometry width="415.5" height="210" as="geometry"/></mxCell><mxCell id="Kgc-H7gb6Vj335qYyoxm-8" value="" style="rounded=0;whiteSpace=wrap;html=1;align=left;container=0;" vertex="1" parent="Kgc-H7gb6Vj335qYyoxm-16"><mxGeometry x="43.25" y="32.5" width="330" height="50.512553855296346" as="geometry"/></mxCell><mxCell id="Kgc-H7gb6Vj335qYyoxm-9" value="" style="rounded=0;whiteSpace=wrap;html=1;align=left;container=0;" vertex="1" parent="Kgc-H7gb6Vj335qYyoxm-16"><mxGeometry x="43.25" y="95.64069231912043" width="330" height="50.512553855296346" as="geometry"/></mxCell><mxCell id="Kgc-H7gb6Vj335qYyoxm-13" value="ログイン" style="rounded=1;whiteSpace=wrap;html=1;container=0;" vertex="1" parent="Kgc-H7gb6Vj335qYyoxm-16"><mxGeometry x="158.25" y="162.5" width="100" height="40" as="geometry"/></mxCell><mxCell id="Kgc-H7gb6Vj335qYyoxm-11" value="&lt;font color=&quot;#828282&quot;&gt;OO OO&lt;/font&gt;" style="rounded=1;whiteSpace=wrap;html=1;container=0;" vertex="1" parent="Kgc-H7gb6Vj335qYyoxm-16"><mxGeometry x="165.99871794871797" y="40.935596493834566" width="190.32820512820513" height="33.69187342148259" as="geometry"/></mxCell><mxCell id="Kgc-H7gb6Vj335qYyoxm-12" value="&lt;font color=&quot;#828282&quot;&gt;OOOOOOOO&lt;/font&gt;" style="rounded=1;whiteSpace=wrap;html=1;container=0;" vertex="1" parent="Kgc-H7gb6Vj335qYyoxm-16"><mxGeometry x="165.99871794871797" y="104.0510325360273" width="190.32820512820513" height="33.69187342148259" as="geometry"/></mxCell><mxCell id="_VLOB37-sNfkRPErgWNS-1" value="戻る" style="rounded=1;whiteSpace=wrap;html=1;" vertex="1" parent="z3uWCpboXsAbwgEmPEA8-1"><mxGeometry y="50" width="60" height="30" as="geometry"/></mxCell><mxCell id="u4IQULpEENJjkloQ3jKM-2" value="新規登録はこちら" style="text;html=1;align=center;verticalAlign=middle;resizable=0;points=[];autosize=1;strokeColor=none;fillColor=none;" vertex="1" parent="z3uWCpboXsAbwgEmPEA8-1"><mxGeometry x="132.25" y="287" width="120" height="30" as="geometry"/></mxCell></root></mxGraphModel></diagram><diagram name="ログアウト" id="dVkUs0Yt-GHOLqJ8VRCr"><mxGraphModel dx="2415" dy="552" grid="1" gridSize="10" guides="1" tooltips="1" connect="1" arrows="1" fold="1" page="1" pageScale="1" pageWidth="827" pageHeight="1169" math="0" shadow="0"><root><mxCell id="FKWazLJU3wxZPAjXUVWX-0"/><mxCell id="FKWazLJU3wxZPAjXUVWX-1" parent="FKWazLJU3wxZPAjXUVWX-0"/><mxCell id="FKWazLJU3wxZPAjXUVWX-2" value="" style="group" vertex="1" connectable="0" parent="FKWazLJU3wxZPAjXUVWX-1"><mxGeometry x="-1560" y="240" width="695" height="345" as="geometry"/></mxCell><mxCell id="FKWazLJU3wxZPAjXUVWX-3" value="&lt;b&gt;ロストトラッカー&lt;br&gt;&lt;/b&gt;" style="rounded=0;whiteSpace=wrap;html=1;align=left;verticalAlign=top;container=0;" vertex="1" parent="FKWazLJU3wxZPAjXUVWX-2"><mxGeometry width="680" height="340" as="geometry"/></mxCell><mxCell id="FKWazLJU3wxZPAjXUVWX-4" value="&lt;span style=&quot;text-align: right;&quot;&gt;ユーザー名　ログアウト&lt;/span&gt;" style="text;html=1;align=center;verticalAlign=middle;resizable=0;points=[];autosize=1;strokeColor=none;fillColor=none;" vertex="1" parent="FKWazLJU3wxZPAjXUVWX-2"><mxGeometry x="528" y="20" width="160" height="30" as="geometry"/></mxCell><mxCell id="FKWazLJU3wxZPAjXUVWX-5" value="©2023 groupF" style="text;html=1;align=center;verticalAlign=middle;resizable=0;points=[];autosize=1;strokeColor=none;fillColor=none;" vertex="1" parent="FKWazLJU3wxZPAjXUVWX-2"><mxGeometry x="290" y="315" width="100" height="30" as="geometry"/></mxCell><mxCell id="FKWazLJU3wxZPAjXUVWX-6" value="" style="endArrow=none;html=1;" edge="1" parent="FKWazLJU3wxZPAjXUVWX-2"><mxGeometry width="50" height="50" relative="1" as="geometry"><mxPoint y="23" as="sourcePoint"/><mxPoint x="680" y="23" as="targetPoint"/></mxGeometry></mxCell><mxCell id="FKWazLJU3wxZPAjXUVWX-7" value="" style="endArrow=none;html=1;" edge="1" parent="FKWazLJU3wxZPAjXUVWX-2"><mxGeometry width="50" height="50" relative="1" as="geometry"><mxPoint x="1" y="45" as="sourcePoint"/><mxPoint x="681" y="45" as="targetPoint"/></mxGeometry></mxCell><mxCell id="4gfF1jq0uj_bMS9tVTMv-0" value="ログアウトしますか？&lt;br&gt;&lt;br&gt;はい　　いいえ" style="rounded=0;whiteSpace=wrap;html=1;" vertex="1" parent="FKWazLJU3wxZPAjXUVWX-2"><mxGeometry x="210" y="115" width="260" height="110" as="geometry"/></mxCell></root></mxGraphModel></diagram><diagram name="ホームページ" id="hUPo4Gd0ITaNI18ovDXV"><mxGraphModel dx="2415" dy="552" grid="1" gridSize="10" guides="1" tooltips="1" connect="1" arrows="1" fold="1" page="1" pageScale="1" pageWidth="827" pageHeight="1169" math="0" shadow="0"><root><mxCell id="Tth_eP1OP4oKz2orZb6w-0"/><mxCell id="Tth_eP1OP4oKz2orZb6w-1" parent="Tth_eP1OP4oKz2orZb6w-0"/><mxCell id="Tth_eP1OP4oKz2orZb6w-2" value="" style="group;verticalAlign=top;" vertex="1" connectable="0" parent="Tth_eP1OP4oKz2orZb6w-1"><mxGeometry x="-1560" y="240" width="681" height="345" as="geometry"/></mxCell><mxCell id="Tth_eP1OP4oKz2orZb6w-3" value="&lt;b&gt;ロストトラッカー&lt;br&gt;&lt;/b&gt;" style="rounded=0;whiteSpace=wrap;html=1;align=left;verticalAlign=top;container=0;" vertex="1" parent="Tth_eP1OP4oKz2orZb6w-2"><mxGeometry width="680" height="340" as="geometry"/></mxCell><mxCell id="Tth_eP1OP4oKz2orZb6w-4" value="&lt;span style=&quot;text-align: right;&quot;&gt;新規登録　ログイン&lt;/span&gt;" style="text;html=1;align=center;verticalAlign=middle;resizable=0;points=[];autosize=1;strokeColor=none;fillColor=none;" vertex="1" parent="Tth_eP1OP4oKz2orZb6w-2"><mxGeometry x="550" y="20" width="130" height="30" as="geometry"/></mxCell><mxCell id="Tth_eP1OP4oKz2orZb6w-5" value="©2023 groupF" style="text;html=1;align=center;verticalAlign=middle;resizable=0;points=[];autosize=1;strokeColor=none;fillColor=none;" vertex="1" parent="Tth_eP1OP4oKz2orZb6w-2"><mxGeometry x="290" y="315" width="100" height="30" as="geometry"/></mxCell><mxCell id="Tth_eP1OP4oKz2orZb6w-6" value="" style="endArrow=none;html=1;" edge="1" parent="Tth_eP1OP4oKz2orZb6w-2"><mxGeometry width="50" height="50" relative="1" as="geometry"><mxPoint y="23" as="sourcePoint"/><mxPoint x="680" y="23" as="targetPoint"/></mxGeometry></mxCell><mxCell id="Tth_eP1OP4oKz2orZb6w-7" value="" style="endArrow=none;html=1;" edge="1" parent="Tth_eP1OP4oKz2orZb6w-2"><mxGeometry width="50" height="50" relative="1" as="geometry"><mxPoint x="1" y="45" as="sourcePoint"/><mxPoint x="681" y="45" as="targetPoint"/></mxGeometry></mxCell><mxCell id="YzUG8RBOgikh2ax_aj_C-1" value="グループ" style="rounded=0;whiteSpace=wrap;html=1;verticalAlign=top;" vertex="1" parent="Tth_eP1OP4oKz2orZb6w-1"><mxGeometry x="-1490" y="660" width="120" height="60" as="geometry"/></mxCell><mxCell id="YzUG8RBOgikh2ax_aj_C-0" value="イベント" style="rounded=0;whiteSpace=wrap;html=1;verticalAlign=top;" vertex="1" parent="Tth_eP1OP4oKz2orZb6w-1"><mxGeometry x="-1190" y="660" width="120" height="60" as="geometry"/></mxCell></root></mxGraphModel></diagram><diagram name="グループ" id="yzNGlvh96rSLQHM3kn4o"><mxGraphModel dx="2415" dy="552" grid="1" gridSize="10" guides="1" tooltips="1" connect="1" arrows="1" fold="1" page="1" pageScale="1" pageWidth="827" pageHeight="1169" math="0" shadow="0"><root><mxCell id="ONysQVI9NjET946Wcu_A-0"/><mxCell id="ONysQVI9NjET946Wcu_A-1" parent="ONysQVI9NjET946Wcu_A-0"/><mxCell id="ONysQVI9NjET946Wcu_A-2" value="" style="group" vertex="1" connectable="0" parent="ONysQVI9NjET946Wcu_A-1"><mxGeometry x="-1560" y="240" width="681" height="345" as="geometry"/></mxCell><mxCell id="ONysQVI9NjET946Wcu_A-3" value="&lt;b&gt;ロストトラッカー&lt;br&gt;&lt;/b&gt;" style="rounded=0;whiteSpace=wrap;html=1;align=left;verticalAlign=top;container=0;" vertex="1" parent="ONysQVI9NjET946Wcu_A-2"><mxGeometry width="680" height="340" as="geometry"/></mxCell><mxCell id="ONysQVI9NjET946Wcu_A-4" value="&lt;span style=&quot;text-align: right;&quot;&gt;新規登録　ログイン&lt;/span&gt;" style="text;html=1;align=center;verticalAlign=middle;resizable=0;points=[];autosize=1;strokeColor=none;fillColor=none;" vertex="1" parent="ONysQVI9NjET946Wcu_A-2"><mxGeometry x="550" y="20" width="130" height="30" as="geometry"/></mxCell><mxCell id="ONysQVI9NjET946Wcu_A-5" value="©2023 groupF" style="text;html=1;align=center;verticalAlign=middle;resizable=0;points=[];autosize=1;strokeColor=none;fillColor=none;" vertex="1" parent="ONysQVI9NjET946Wcu_A-2"><mxGeometry x="290" y="315" width="100" height="30" as="geometry"/></mxCell><mxCell id="ONysQVI9NjET946Wcu_A-6" value="" style="endArrow=none;html=1;" edge="1" parent="ONysQVI9NjET946Wcu_A-2"><mxGeometry width="50" height="50" relative="1" as="geometry"><mxPoint y="23" as="sourcePoint"/><mxPoint x="680" y="23" as="targetPoint"/></mxGeometry></mxCell><mxCell id="ONysQVI9NjET946Wcu_A-7" value="" style="endArrow=none;html=1;" edge="1" parent="ONysQVI9NjET946Wcu_A-2"><mxGeometry width="50" height="50" relative="1" as="geometry"><mxPoint x="1" y="45" as="sourcePoint"/><mxPoint x="681" y="45" as="targetPoint"/></mxGeometry></mxCell><mxCell id="74M8Zz5r4I9dgUp8D9Oe-1" value="グループ作成" style="rounded=1;whiteSpace=wrap;html=1;" vertex="1" parent="ONysQVI9NjET946Wcu_A-2"><mxGeometry x="150" y="140" width="160" height="100" as="geometry"/></mxCell><mxCell id="74M8Zz5r4I9dgUp8D9Oe-0" value="グループ参加" style="rounded=1;whiteSpace=wrap;html=1;" vertex="1" parent="ONysQVI9NjET946Wcu_A-2"><mxGeometry x="350" y="140" width="160" height="100" as="geometry"/></mxCell><mxCell id="IgVU-y5j3PAuuQsi5ILU-0" value="戻る" style="rounded=1;whiteSpace=wrap;html=1;" vertex="1" parent="ONysQVI9NjET946Wcu_A-1"><mxGeometry x="-1560" y="290" width="60" height="30" as="geometry"/></mxCell></root></mxGraphModel></diagram><diagram name="グループ作成" id="uQAXT7WJ--JvltuVYdUm"><mxGraphModel dx="2415" dy="552" grid="1" gridSize="10" guides="1" tooltips="1" connect="1" arrows="1" fold="1" page="1" pageScale="1" pageWidth="827" pageHeight="1169" math="0" shadow="0"><root><mxCell id="oq6l7l6ty6i5RxjMhVYe-0"/><mxCell id="oq6l7l6ty6i5RxjMhVYe-1" parent="oq6l7l6ty6i5RxjMhVYe-0"/><mxCell id="oq6l7l6ty6i5RxjMhVYe-2" value="" style="group" vertex="1" connectable="0" parent="oq6l7l6ty6i5RxjMhVYe-1"><mxGeometry x="-1560" y="240" width="681" height="345" as="geometry"/></mxCell><mxCell id="oq6l7l6ty6i5RxjMhVYe-3" value="&lt;b&gt;ロストトラッカー&lt;br&gt;&lt;/b&gt;" style="rounded=0;whiteSpace=wrap;html=1;align=left;verticalAlign=top;container=0;" vertex="1" parent="oq6l7l6ty6i5RxjMhVYe-2"><mxGeometry width="680" height="340" as="geometry"/></mxCell><mxCell id="oq6l7l6ty6i5RxjMhVYe-4" value="&lt;span style=&quot;text-align: right;&quot;&gt;新規登録　ログイン&lt;/span&gt;" style="text;html=1;align=center;verticalAlign=middle;resizable=0;points=[];autosize=1;strokeColor=none;fillColor=none;" vertex="1" parent="oq6l7l6ty6i5RxjMhVYe-2"><mxGeometry x="550" y="20" width="130" height="30" as="geometry"/></mxCell><mxCell id="oq6l7l6ty6i5RxjMhVYe-5" value="©2023 groupF" style="text;html=1;align=center;verticalAlign=middle;resizable=0;points=[];autosize=1;strokeColor=none;fillColor=none;" vertex="1" parent="oq6l7l6ty6i5RxjMhVYe-2"><mxGeometry x="290" y="315" width="100" height="30" as="geometry"/></mxCell><mxCell id="oq6l7l6ty6i5RxjMhVYe-6" value="" style="endArrow=none;html=1;" edge="1" parent="oq6l7l6ty6i5RxjMhVYe-2"><mxGeometry width="50" height="50" relative="1" as="geometry"><mxPoint y="23" as="sourcePoint"/><mxPoint x="680" y="23" as="targetPoint"/></mxGeometry></mxCell><mxCell id="oq6l7l6ty6i5RxjMhVYe-7" value="" style="endArrow=none;html=1;" edge="1" parent="oq6l7l6ty6i5RxjMhVYe-2"><mxGeometry width="50" height="50" relative="1" as="geometry"><mxPoint x="1" y="45" as="sourcePoint"/><mxPoint x="681" y="45" as="targetPoint"/></mxGeometry></mxCell><mxCell id="3LiFeiiyWEWpsWZcDNOP-0" value="戻る" style="rounded=1;whiteSpace=wrap;html=1;" vertex="1" parent="oq6l7l6ty6i5RxjMhVYe-1"><mxGeometry x="-1560" y="290" width="60" height="30" as="geometry"/></mxCell><mxCell id="wePapsIRM6AhiL_BRG-q-0" value="" style="group" vertex="1" connectable="0" parent="oq6l7l6ty6i5RxjMhVYe-1"><mxGeometry x="-1427.75" y="317" width="415.5" height="210" as="geometry"/></mxCell><mxCell id="wePapsIRM6AhiL_BRG-q-1" value="" style="rounded=1;whiteSpace=wrap;html=1;container=0;" vertex="1" parent="wePapsIRM6AhiL_BRG-q-0"><mxGeometry width="415.5" height="210" as="geometry"/></mxCell><mxCell id="wePapsIRM6AhiL_BRG-q-2" value="グループID" style="rounded=0;whiteSpace=wrap;html=1;align=left;container=0;" vertex="1" parent="wePapsIRM6AhiL_BRG-q-0"><mxGeometry x="43.25" y="32.5" width="330" height="50.512553855296346" as="geometry"/></mxCell><mxCell id="wePapsIRM6AhiL_BRG-q-3" value="参加人数" style="rounded=0;whiteSpace=wrap;html=1;align=left;container=0;" vertex="1" parent="wePapsIRM6AhiL_BRG-q-0"><mxGeometry x="43.25" y="95.64069231912043" width="330" height="50.512553855296346" as="geometry"/></mxCell><mxCell id="wePapsIRM6AhiL_BRG-q-4" value="ログイン" style="rounded=1;whiteSpace=wrap;html=1;container=0;" vertex="1" parent="wePapsIRM6AhiL_BRG-q-0"><mxGeometry x="158.25" y="162.5" width="100" height="40" as="geometry"/></mxCell><mxCell id="wePapsIRM6AhiL_BRG-q-5" value="&lt;font color=&quot;#828282&quot;&gt;OOOOOO&lt;/font&gt;" style="rounded=1;whiteSpace=wrap;html=1;container=0;" vertex="1" parent="wePapsIRM6AhiL_BRG-q-0"><mxGeometry x="165.99871794871797" y="40.935596493834566" width="190.32820512820513" height="33.69187342148259" as="geometry"/></mxCell><mxCell id="wePapsIRM6AhiL_BRG-q-6" value="&lt;font color=&quot;#828282&quot;&gt;OO&lt;/font&gt;" style="rounded=1;whiteSpace=wrap;html=1;container=0;" vertex="1" parent="wePapsIRM6AhiL_BRG-q-0"><mxGeometry x="165.99871794871797" y="104.0510325360273" width="190.32820512820513" height="33.69187342148259" as="geometry"/></mxCell></root></mxGraphModel></diagram><diagram name="グループ参加" id="Fk64RB4i6tZzPmNtubdS"><mxGraphModel dx="2415" dy="552" grid="1" gridSize="10" guides="1" tooltips="1" connect="1" arrows="1" fold="1" page="1" pageScale="1" pageWidth="827" pageHeight="1169" math="0" shadow="0"><root><mxCell id="GgIo0JbQHtTcppBh_64O-0"/><mxCell id="GgIo0JbQHtTcppBh_64O-1" parent="GgIo0JbQHtTcppBh_64O-0"/><mxCell id="GgIo0JbQHtTcppBh_64O-2" value="" style="group" vertex="1" connectable="0" parent="GgIo0JbQHtTcppBh_64O-1"><mxGeometry x="-1560" y="240" width="681" height="345" as="geometry"/></mxCell><mxCell id="GgIo0JbQHtTcppBh_64O-3" value="&lt;b&gt;ロストトラッカー&lt;br&gt;&lt;/b&gt;" style="rounded=0;whiteSpace=wrap;html=1;align=left;verticalAlign=top;container=0;" vertex="1" parent="GgIo0JbQHtTcppBh_64O-2"><mxGeometry width="680" height="340" as="geometry"/></mxCell><mxCell id="GgIo0JbQHtTcppBh_64O-4" value="&lt;span style=&quot;text-align: right;&quot;&gt;新規登録　ログイン&lt;/span&gt;" style="text;html=1;align=center;verticalAlign=middle;resizable=0;points=[];autosize=1;strokeColor=none;fillColor=none;" vertex="1" parent="GgIo0JbQHtTcppBh_64O-2"><mxGeometry x="550" y="20" width="130" height="30" as="geometry"/></mxCell><mxCell id="GgIo0JbQHtTcppBh_64O-5" value="©2023 groupF" style="text;html=1;align=center;verticalAlign=middle;resizable=0;points=[];autosize=1;strokeColor=none;fillColor=none;" vertex="1" parent="GgIo0JbQHtTcppBh_64O-2"><mxGeometry x="290" y="315" width="100" height="30" as="geometry"/></mxCell><mxCell id="GgIo0JbQHtTcppBh_64O-6" value="" style="endArrow=none;html=1;" edge="1" parent="GgIo0JbQHtTcppBh_64O-2"><mxGeometry width="50" height="50" relative="1" as="geometry"><mxPoint y="23" as="sourcePoint"/><mxPoint x="680" y="23" as="targetPoint"/></mxGeometry></mxCell><mxCell id="GgIo0JbQHtTcppBh_64O-7" value="" style="endArrow=none;html=1;" edge="1" parent="GgIo0JbQHtTcppBh_64O-2"><mxGeometry width="50" height="50" relative="1" as="geometry"><mxPoint x="1" y="45" as="sourcePoint"/><mxPoint x="681" y="45" as="targetPoint"/></mxGeometry></mxCell><mxCell id="Q5sEFab-FY2LxPXgbvOM-0" value="戻る" style="rounded=1;whiteSpace=wrap;html=1;" vertex="1" parent="GgIo0JbQHtTcppBh_64O-1"><mxGeometry x="-1560" y="290" width="60" height="30" as="geometry"/></mxCell></root></mxGraphModel></diagram><diagram name="イベント参加" id="O5pSWgirtjOWuP4FFv92"><mxGraphModel dx="2415" dy="552" grid="1" gridSize="10" guides="1" tooltips="1" connect="1" arrows="1" fold="1" page="1" pageScale="1" pageWidth="827" pageHeight="1169" math="0" shadow="0"><root><mxCell id="xAu5Sy4B3g2GFogeKwbd-0"/><mxCell id="xAu5Sy4B3g2GFogeKwbd-1" parent="xAu5Sy4B3g2GFogeKwbd-0"/><mxCell id="xAu5Sy4B3g2GFogeKwbd-2" value="" style="group" vertex="1" connectable="0" parent="xAu5Sy4B3g2GFogeKwbd-1"><mxGeometry x="-1560" y="240" width="681" height="345" as="geometry"/></mxCell><mxCell id="xAu5Sy4B3g2GFogeKwbd-3" value="&lt;b&gt;ロストトラッカー&lt;br&gt;&lt;/b&gt;" style="rounded=0;whiteSpace=wrap;html=1;align=left;verticalAlign=top;container=0;" vertex="1" parent="xAu5Sy4B3g2GFogeKwbd-2"><mxGeometry width="680" height="340" as="geometry"/></mxCell><mxCell id="xAu5Sy4B3g2GFogeKwbd-4" value="&lt;span style=&quot;text-align: right;&quot;&gt;新規登録　ログイン&lt;/span&gt;" style="text;html=1;align=center;verticalAlign=middle;resizable=0;points=[];autosize=1;strokeColor=none;fillColor=none;" vertex="1" parent="xAu5Sy4B3g2GFogeKwbd-2"><mxGeometry x="550" y="20" width="130" height="30" as="geometry"/></mxCell><mxCell id="xAu5Sy4B3g2GFogeKwbd-5" value="©2023 groupF" style="text;html=1;align=center;verticalAlign=middle;resizable=0;points=[];autosize=1;strokeColor=none;fillColor=none;" vertex="1" parent="xAu5Sy4B3g2GFogeKwbd-2"><mxGeometry x="290" y="315" width="100" height="30" as="geometry"/></mxCell><mxCell id="xAu5Sy4B3g2GFogeKwbd-6" value="" style="endArrow=none;html=1;" edge="1" parent="xAu5Sy4B3g2GFogeKwbd-2"><mxGeometry width="50" height="50" relative="1" as="geometry"><mxPoint y="23" as="sourcePoint"/><mxPoint x="680" y="23" as="targetPoint"/></mxGeometry></mxCell><mxCell id="xAu5Sy4B3g2GFogeKwbd-7" value="" style="endArrow=none;html=1;" edge="1" parent="xAu5Sy4B3g2GFogeKwbd-2"><mxGeometry width="50" height="50" relative="1" as="geometry"><mxPoint x="1" y="45" as="sourcePoint"/><mxPoint x="681" y="45" as="targetPoint"/></mxGeometry></mxCell><mxCell id="xAu5Sy4B3g2GFogeKwbd-8" value="戻る" style="rounded=1;whiteSpace=wrap;html=1;" vertex="1" parent="xAu5Sy4B3g2GFogeKwbd-1"><mxGeometry x="-1560" y="290" width="60" height="30" as="geometry"/></mxCell></root></mxGraphModel></diagram><diagram name="グループ参加のコピー" id="VqjQWQWHSrcTX5zzqbns"><mxGraphModel dx="2415" dy="552" grid="1" gridSize="10" guides="1" tooltips="1" connect="1" arrows="1" fold="1" page="1" pageScale="1" pageWidth="827" pageHeight="1169" math="0" shadow="0"><root><mxCell id="JxueytCu1klWSTnxkbnE-0"/><mxCell id="JxueytCu1klWSTnxkbnE-1" parent="JxueytCu1klWSTnxkbnE-0"/><mxCell id="JxueytCu1klWSTnxkbnE-2" value="" style="group" vertex="1" connectable="0" parent="JxueytCu1klWSTnxkbnE-1"><mxGeometry x="-1560" y="240" width="681" height="345" as="geometry"/></mxCell><mxCell id="JxueytCu1klWSTnxkbnE-3" value="&lt;b&gt;ロストトラッカー&lt;br&gt;&lt;/b&gt;" style="rounded=0;whiteSpace=wrap;html=1;align=left;verticalAlign=top;container=0;" vertex="1" parent="JxueytCu1klWSTnxkbnE-2"><mxGeometry width="680" height="340" as="geometry"/></mxCell><mxCell id="JxueytCu1klWSTnxkbnE-4" value="&lt;span style=&quot;text-align: right;&quot;&gt;新規登録　ログイン&lt;/span&gt;" style="text;html=1;align=center;verticalAlign=middle;resizable=0;points=[];autosize=1;strokeColor=none;fillColor=none;" vertex="1" parent="JxueytCu1klWSTnxkbnE-2"><mxGeometry x="550" y="20" width="130" height="30" as="geometry"/></mxCell><mxCell id="JxueytCu1klWSTnxkbnE-5" value="©2023 groupF" style="text;html=1;align=center;verticalAlign=middle;resizable=0;points=[];autosize=1;strokeColor=none;fillColor=none;" vertex="1" parent="JxueytCu1klWSTnxkbnE-2"><mxGeometry x="290" y="315" width="100" height="30" as="geometry"/></mxCell><mxCell id="JxueytCu1klWSTnxkbnE-6" value="" style="endArrow=none;html=1;" edge="1" parent="JxueytCu1klWSTnxkbnE-2"><mxGeometry width="50" height="50" relative="1" as="geometry"><mxPoint y="23" as="sourcePoint"/><mxPoint x="680" y="23" as="targetPoint"/></mxGeometry></mxCell><mxCell id="JxueytCu1klWSTnxkbnE-7" value="" style="endArrow=none;html=1;" edge="1" parent="JxueytCu1klWSTnxkbnE-2"><mxGeometry width="50" height="50" relative="1" as="geometry"><mxPoint x="1" y="45" as="sourcePoint"/><mxPoint x="681" y="45" as="targetPoint"/></mxGeometry></mxCell><mxCell id="JxueytCu1klWSTnxkbnE-8" value="戻る" style="rounded=1;whiteSpace=wrap;html=1;" vertex="1" parent="JxueytCu1klWSTnxkbnE-1"><mxGeometry x="-1560" y="290" width="60" height="30" as="geometry"/></mxCell></root></mxGraphModel></diagram><diagram name="グループ参加のコピー" id="X0p6YgdBL7h6vNtP4Wws"><mxGraphModel dx="2415" dy="552" grid="1" gridSize="10" guides="1" tooltips="1" connect="1" arrows="1" fold="1" page="1" pageScale="1" pageWidth="827" pageHeight="1169" math="0" shadow="0"><root><mxCell id="DCp7tg-9lgtGy0Um8DuW-0"/><mxCell id="DCp7tg-9lgtGy0Um8DuW-1" parent="DCp7tg-9lgtGy0Um8DuW-0"/><mxCell id="DCp7tg-9lgtGy0Um8DuW-2" value="" style="group" vertex="1" connectable="0" parent="DCp7tg-9lgtGy0Um8DuW-1"><mxGeometry x="-1560" y="240" width="681" height="345" as="geometry"/></mxCell><mxCell id="DCp7tg-9lgtGy0Um8DuW-3" value="&lt;b&gt;ロストトラッカー&lt;br&gt;&lt;/b&gt;" style="rounded=0;whiteSpace=wrap;html=1;align=left;verticalAlign=top;container=0;" vertex="1" parent="DCp7tg-9lgtGy0Um8DuW-2"><mxGeometry width="680" height="340" as="geometry"/></mxCell><mxCell id="DCp7tg-9lgtGy0Um8DuW-4" value="&lt;span style=&quot;text-align: right;&quot;&gt;新規登録　ログイン&lt;/span&gt;" style="text;html=1;align=center;verticalAlign=middle;resizable=0;points=[];autosize=1;strokeColor=none;fillColor=none;" vertex="1" parent="DCp7tg-9lgtGy0Um8DuW-2"><mxGeometry x="550" y="20" width="130" height="30" as="geometry"/></mxCell><mxCell id="DCp7tg-9lgtGy0Um8DuW-5" value="©2023 groupF" style="text;html=1;align=center;verticalAlign=middle;resizable=0;points=[];autosize=1;strokeColor=none;fillColor=none;" vertex="1" parent="DCp7tg-9lgtGy0Um8DuW-2"><mxGeometry x="290" y="315" width="100" height="30" as="geometry"/></mxCell><mxCell id="DCp7tg-9lgtGy0Um8DuW-6" value="" style="endArrow=none;html=1;" edge="1" parent="DCp7tg-9lgtGy0Um8DuW-2"><mxGeometry width="50" height="50" relative="1" as="geometry"><mxPoint y="23" as="sourcePoint"/><mxPoint x="680" y="23" as="targetPoint"/></mxGeometry></mxCell><mxCell id="DCp7tg-9lgtGy0Um8DuW-7" value="" style="endArrow=none;html=1;" edge="1" parent="DCp7tg-9lgtGy0Um8DuW-2"><mxGeometry width="50" height="50" relative="1" as="geometry"><mxPoint x="1" y="45" as="sourcePoint"/><mxPoint x="681" y="45" as="targetPoint"/></mxGeometry></mxCell><mxCell id="DCp7tg-9lgtGy0Um8DuW-8" value="戻る" style="rounded=1;whiteSpace=wrap;html=1;" vertex="1" parent="DCp7tg-9lgtGy0Um8DuW-1"><mxGeometry x="-1560" y="290" width="60" height="30" as="geometry"/></mxCell></root></mxGraphModel></diagram></mxfile>